<svg xmlns="http://www.w3.org/2000/svg" xmlns:xlink="http://www.w3.org/1999/xlink" width="500" zoomAndPan="magnify" viewBox="0 0 375 225" height="300" preserveAspectRatio="xMidYMid meet" version="1.0"><defs><g/><clipPath id="7844d671d9"><path d="M 78.386719 2.769531 L 296.601562 2.769531 L 296.601562 222.519531 L 78.386719 222.519531 Z M 78.386719 2.769531 " clip-rule="nonzero"/></clipPath><clipPath id="6eb6e5250a"><path d="M 78.78125 106.992188 C 79.199219 103.261719 78.945312 99.476562 79.304688 95.722656 C 79.441406 94.238281 79.695312 92.769531 80.070312 91.328125 C 81.128906 87.351562 83.214844 83.988281 86.210938 81.171875 C 86.699219 80.707031 87.292969 80.367188 87.941406 80.183594 C 88.550781 80 89.191406 79.75 89.679688 79.359375 C 90.410156 78.773438 91.121094 78.109375 90.738281 76.953125 C 90.660156 76.714844 90.863281 76.277344 91.078125 76.0625 C 91.464844 75.667969 91.910156 75.332031 92.394531 75.074219 C 94.746094 73.847656 97.105469 72.644531 99.484375 71.484375 C 99.941406 71.261719 100.449219 71.160156 100.957031 71.199219 C 101.824219 71.289062 102.660156 71.589844 103.523438 71.714844 C 104.132812 71.800781 104.753906 71.804688 105.367188 71.71875 C 106.164062 71.605469 106.953125 71.191406 107.734375 71.21875 C 108.773438 71.265625 109.800781 71.46875 110.78125 71.820312 C 113.625 72.808594 116.128906 74.582031 118.003906 76.941406 C 118.191406 77.199219 118.265625 77.523438 118.214844 77.839844 C 118.082031 78.492188 118.113281 79.09375 118.417969 79.683594 C 118.699219 80.230469 118.933594 80.808594 119.253906 81.332031 C 120.816406 83.871094 121.621094 86.617188 121.769531 89.601562 C 121.902344 92.253906 121.988281 94.890625 121.21875 97.46875 C 120.867188 98.652344 120.53125 99.867188 119.367188 100.609375 C 119.117188 100.769531 118.949219 101.175781 118.902344 101.492188 C 118.800781 102.140625 118.816406 102.804688 118.769531 103.460938 C 118.75 103.992188 118.699219 104.523438 118.609375 105.046875 C 118.566406 105.277344 118.335938 105.472656 118.191406 105.683594 C 118.007812 105.546875 117.796875 105.433594 117.652344 105.269531 C 117.265625 104.8125 116.851562 104.828125 116.613281 105.378906 C 116.464844 105.738281 116.359375 106.113281 116.292969 106.492188 C 116.082031 107.546875 115.839844 108.621094 115.066406 109.386719 C 114.078125 110.367188 113.855469 111.519531 113.953125 112.820312 C 114.078125 114.507812 113.578125 116.097656 113.125 117.691406 C 113.054688 117.933594 112.863281 118.140625 112.664062 118.472656 C 112.539062 118.214844 112.46875 118.128906 112.46875 118.042969 C 112.457031 117.214844 112.46875 116.390625 112.453125 115.566406 C 112.453125 115.328125 112.441406 115.042969 112.316406 114.863281 C 112.246094 114.765625 112.152344 114.683594 112.046875 114.621094 C 111.941406 114.558594 111.820312 114.523438 111.699219 114.511719 C 111.539062 114.511719 111.3125 114.773438 111.242188 114.96875 C 111.132812 115.257812 111.09375 115.566406 111.128906 115.875 C 111.257812 116.800781 111.144531 117.6875 111.003906 118.609375 C 110.800781 120.003906 110.789062 121.433594 110.734375 122.847656 C 110.660156 124.726562 110.027344 126.382812 108.914062 127.886719 C 108.714844 128.15625 108.523438 128.59375 108.605469 128.878906 C 108.8125 129.5625 109.101562 130.214844 109.472656 130.824219 C 109.847656 131.457031 109.882812 131.605469 109.273438 132.023438 C 108.742188 132.394531 108.503906 132.835938 108.710938 133.492188 C 109.023438 134.480469 109.226562 135.507812 109.601562 136.46875 C 110.78125 139.488281 112.019531 142.480469 113.238281 145.484375 C 113.382812 145.835938 113.582031 146.175781 113.691406 146.539062 C 113.707031 146.625 113.699219 146.714844 113.667969 146.800781 C 113.640625 146.882812 113.59375 146.960938 113.527344 147.019531 C 112.910156 147.390625 112.808594 147.582031 113.0625 148.265625 C 113.269531 148.820312 113.476562 149.378906 113.722656 149.910156 C 114.027344 150.574219 114.433594 151.160156 115.171875 151.421875 C 115.605469 151.574219 115.753906 151.886719 115.683594 152.339844 C 115.609375 152.816406 115.804688 153.183594 116.207031 153.4375 C 116.691406 153.742188 117.167969 154.0625 117.671875 154.328125 C 117.882812 154.441406 118.308594 154.542969 118.371094 154.453125 C 118.53125 154.238281 118.65625 153.871094 118.582031 153.632812 C 118.136719 152.167969 117.765625 150.652344 117.101562 149.285156 C 116.273438 147.53125 115.617188 145.703125 115.132812 143.824219 C 115.011719 143.359375 115.113281 142.832031 115.113281 142.339844 L 115.351562 142.308594 C 115.476562 142.550781 115.582031 142.800781 115.671875 143.058594 C 116.164062 144.914062 116.613281 146.769531 117.140625 148.613281 C 117.316406 149.234375 117.632812 149.820312 117.949219 150.382812 C 118.167969 150.777344 118.566406 150.878906 118.949219 150.582031 C 119.363281 150.265625 119.59375 150.449219 119.730469 150.839844 C 119.820312 151.089844 119.820312 151.359375 119.875 151.617188 C 119.96875 152.074219 119.996094 152.566406 120.203125 152.96875 C 120.308594 153.183594 120.738281 153.332031 121.011719 153.320312 C 121.179688 153.3125 121.4375 152.949219 121.46875 152.730469 C 121.519531 152.316406 121.527344 151.851562 121.386719 151.464844 C 120.695312 149.53125 120.046875 147.570312 119.199219 145.703125 C 117.628906 142.238281 117.246094 138.65625 117.933594 134.96875 C 118.273438 133.136719 118.875 131.351562 119.363281 129.542969 C 119.476562 129.132812 119.609375 128.726562 119.742188 128.316406 L 119.914062 128.328125 C 119.980469 128.488281 120.09375 128.648438 120.109375 128.8125 C 120.210938 130.035156 120.300781 131.257812 120.378906 132.480469 C 120.546875 135.164062 120.589844 137.863281 120.90625 140.53125 C 121.089844 142.085938 121.683594 143.59375 122.152344 145.109375 C 122.226562 145.34375 122.613281 145.484375 122.851562 145.671875 C 123.011719 145.429688 123.285156 145.203125 123.304688 144.953125 C 123.347656 144.28125 123.683594 143.789062 124.109375 143.34375 C 124.601562 142.816406 124.71875 142.265625 124.410156 141.597656 C 124.246094 141.195312 124.105469 140.785156 123.988281 140.371094 L 124.140625 140.308594 C 124.199219 140.382812 124.285156 140.453125 124.308594 140.539062 C 124.605469 141.664062 124.960938 142.785156 125.164062 143.929688 C 125.324219 144.828125 125.429688 145.042969 126.351562 145.167969 C 126.449219 145.1875 126.542969 145.21875 126.632812 145.257812 C 126.632812 145.6875 126.542969 146.117188 126.648438 146.488281 C 127.195312 148.445312 127.730469 150.410156 128.386719 152.332031 C 129.5625 155.78125 131.375 158.90625 133.523438 161.828125 C 134.308594 162.894531 135.28125 163.820312 136.195312 164.78125 C 137.585938 166.242188 138.964844 167.714844 140.421875 169.105469 C 141.292969 169.9375 142.296875 170.632812 143.261719 171.355469 C 143.492188 171.53125 143.8125 171.585938 144.089844 171.695312 C 144.128906 171.636719 144.167969 171.578125 144.207031 171.519531 C 144.058594 171.257812 143.957031 170.945312 143.753906 170.746094 C 142.710938 169.730469 141.648438 168.730469 140.574219 167.746094 C 139.460938 166.742188 138.324219 165.769531 137.203125 164.777344 C 136.898438 164.507812 136.820312 164.230469 137.136719 163.878906 C 137.261719 163.742188 137.253906 163.460938 137.234375 163.257812 C 137.195312 162.992188 137.136719 162.726562 137.058594 162.46875 L 137.222656 162.355469 C 137.445312 162.539062 137.695312 162.699219 137.878906 162.917969 C 138.980469 164.21875 140.097656 165.503906 141.144531 166.851562 C 142.609375 168.734375 144.347656 170.34375 146.210938 171.789062 C 148.601562 173.644531 151.132812 175.316406 153.578125 177.097656 C 154.730469 177.9375 155.96875 178.730469 156.273438 180.292969 C 156.300781 180.503906 156.308594 180.714844 156.300781 180.925781 C 156.109375 180.925781 155.914062 180.910156 155.722656 180.871094 C 155.320312 180.761719 154.90625 180.691406 154.734375 181.171875 C 154.308594 182.375 155.28125 183.4375 156.589844 183.164062 C 156.5 183.054688 156.421875 182.9375 156.359375 182.808594 C 156.28125 182.582031 156.238281 182.347656 156.179688 182.113281 C 156.378906 182.167969 156.59375 182.183594 156.769531 182.277344 C 158.949219 183.449219 161.09375 184.683594 163.304688 185.792969 C 164.667969 186.476562 166.121094 186.976562 167.535156 187.539062 C 167.863281 187.667969 168.136719 187.644531 168.15625 187.15625 C 168.175781 186.574219 168.316406 186.507812 168.828125 186.773438 C 169.035156 186.863281 169.226562 186.988281 169.390625 187.144531 C 169.835938 187.648438 170.253906 188.171875 170.675781 188.695312 C 171.128906 189.269531 171.410156 189.300781 171.894531 188.773438 C 172.148438 188.5 172.390625 188.402344 172.757812 188.574219 C 173.191406 188.800781 173.648438 188.980469 174.121094 189.109375 C 174.40625 189.179688 174.886719 189.1875 175.015625 189.015625 C 175.5625 188.304688 176.101562 188.566406 176.679688 188.894531 C 176.984375 189.0625 177.285156 189.238281 177.605469 189.375 C 178.910156 189.945312 180.234375 190.425781 181.695312 190.089844 C 182.289062 189.953125 182.386719 189.707031 182.140625 189.160156 C 182.019531 188.886719 181.929688 188.59375 181.769531 188.160156 C 182.179688 188.246094 182.394531 188.273438 182.605469 188.332031 C 184.394531 188.847656 186.21875 188.738281 188.042969 188.644531 C 190.089844 188.542969 192.121094 188.492188 194.066406 189.398438 C 194.847656 189.761719 195.722656 189.941406 196.570312 190.140625 C 197.1875 190.285156 197.617188 190.015625 197.71875 189.53125 C 197.859375 188.894531 198.019531 188.828125 198.601562 189.160156 C 198.761719 189.25 198.914062 189.347656 199.074219 189.4375 C 199.828125 189.851562 200.027344 189.832031 200.625 189.214844 C 200.894531 188.933594 201.148438 188.914062 201.496094 189.074219 C 203.15625 189.832031 204.671875 189.558594 206.042969 188.378906 C 206.382812 188.085938 206.753906 187.894531 207.210938 188.148438 C 208.585938 188.914062 209.976562 188.503906 211.378906 188.21875 C 212.070312 188.078125 212.773438 188.007812 213.480469 188.011719 C 213.703125 188.011719 214.097656 188.328125 214.113281 188.527344 C 214.136719 188.777344 213.910156 189.222656 213.699219 189.296875 C 212.738281 189.609375 211.746094 189.816406 210.769531 190.070312 C 210.570312 190.125 210.378906 190.210938 210.1875 190.28125 C 210.203125 190.351562 210.214844 190.421875 210.230469 190.492188 C 210.417969 190.53125 210.605469 190.554688 210.796875 190.570312 C 211.40625 190.59375 212.011719 190.605469 212.617188 190.625 C 212.886719 190.632812 213.152344 190.660156 213.417969 190.664062 C 214.277344 190.683594 215.140625 190.644531 215.992188 190.726562 C 216.371094 190.761719 216.734375 191.035156 217.09375 191.203125 C 217.070312 191.28125 217.046875 191.355469 217.023438 191.433594 C 216.585938 191.394531 216.144531 191.296875 215.71875 191.339844 C 215.390625 191.371094 215.085938 191.515625 214.855469 191.75 C 214.773438 191.839844 215.042969 192.242188 215.15625 192.511719 C 215.230469 192.6875 215.394531 192.898438 215.347656 193.035156 C 215.300781 193.171875 215.042969 193.269531 214.863281 193.292969 C 213.566406 193.460938 212.261719 193.574219 210.96875 193.761719 C 209.378906 193.996094 207.792969 194.261719 206.214844 194.558594 C 205.644531 194.667969 205 194.726562 204.640625 195.425781 C 205.519531 195.726562 206.359375 195.765625 207.226562 195.734375 C 208.40625 195.6875 209.519531 195.296875 210.734375 195.308594 C 212.5 195.324219 214.28125 195.035156 216.03125 194.738281 C 217.890625 194.425781 219.71875 193.921875 221.570312 193.558594 C 223.339844 193.222656 225.019531 192.539062 226.523438 191.546875 C 229.191406 189.777344 232.121094 188.539062 235.03125 187.285156 C 237.902344 186.046875 240.832031 184.949219 243.410156 183.148438 C 244.382812 182.472656 245.289062 181.703125 246.195312 180.9375 C 246.386719 180.777344 246.539062 180.574219 246.636719 180.347656 C 246.734375 180.117188 246.777344 179.867188 246.757812 179.617188 C 246.625 179.621094 246.492188 179.640625 246.363281 179.667969 C 245.664062 179.886719 244.972656 180.125 244.269531 180.328125 C 244.125 180.371094 243.941406 180.300781 243.777344 180.28125 C 243.800781 180.113281 243.847656 179.949219 243.914062 179.792969 C 244.078125 179.546875 244.257812 179.308594 244.453125 179.082031 C 244.191406 179.019531 244.082031 179 243.964844 178.957031 C 243.78125 178.902344 243.605469 178.835938 243.425781 178.769531 C 243.515625 178.554688 243.546875 178.273438 243.707031 178.152344 C 244.003906 177.902344 244.386719 177.78125 244.707031 177.5625 C 245.347656 177.128906 246.007812 176.710938 246.574219 176.191406 C 246.78125 176 246.742188 175.539062 246.820312 175.199219 C 246.488281 175.261719 246.085938 175.222656 245.832031 175.398438 C 245.089844 175.914062 244.425781 176.53125 243.707031 177.074219 C 242.421875 178.054688 241.164062 179.074219 239.808594 179.949219 C 238.964844 180.511719 238.027344 180.917969 237.042969 181.152344 C 236.261719 181.324219 235.566406 181.449219 234.960938 182.03125 C 233.792969 183.152344 232.25 183.414062 230.730469 183.734375 C 230.851562 183.554688 231.015625 183.40625 231.207031 183.304688 C 233.0625 182.261719 234.914062 181.238281 236.761719 180.183594 C 238.183594 179.367188 239.351562 178.234375 240.445312 177.035156 C 240.59375 176.871094 240.699219 176.507812 240.617188 176.339844 C 240.535156 176.171875 240.148438 175.984375 239.96875 176.039062 C 239.214844 176.265625 238.648438 175.835938 238.058594 175.554688 C 237.546875 175.308594 237.527344 174.96875 237.921875 174.515625 C 238.316406 174.0625 238.757812 173.605469 239.160156 173.140625 C 239.929688 172.253906 240.730469 171.4375 241.949219 171.144531 C 242.339844 171.050781 242.679688 170.707031 243.011719 170.433594 C 243.191406 170.28125 243.292969 170.03125 243.445312 169.839844 C 244.371094 168.671875 245.695312 168.019531 246.855469 167.148438 C 247.527344 166.640625 248.082031 165.972656 248.648438 165.332031 C 248.785156 165.175781 248.75 164.859375 248.792969 164.613281 C 248.535156 164.664062 248.234375 164.644531 248.03125 164.777344 C 247.078125 165.410156 246.183594 166.140625 245.214844 166.738281 C 243.363281 167.886719 241.5 169.042969 239.578125 170.078125 C 237.277344 171.316406 234.917969 172.429688 232.574219 173.582031 C 229.40625 175.132812 226.226562 176.660156 223.066406 178.226562 C 222.738281 178.390625 222.519531 178.78125 222.25 179.066406 L 223.03125 179.746094 C 222.3125 179.984375 221.601562 180.207031 220.902344 180.460938 C 216.960938 181.875 213.03125 183.324219 209.078125 184.699219 C 206.746094 185.496094 204.335938 186.03125 201.890625 186.289062 C 200.796875 186.414062 199.707031 186.601562 198.613281 186.734375 C 198.046875 186.800781 197.480469 186.835938 196.910156 186.835938 C 194.832031 186.828125 192.753906 186.757812 190.675781 186.792969 C 189.777344 186.808594 188.898438 186.933594 188.003906 186.65625 C 187.410156 186.46875 186.757812 186.453125 186.128906 186.371094 C 184.695312 186.1875 183.234375 186.097656 181.820312 185.8125 C 179.953125 185.429688 178.113281 184.929688 176.273438 184.421875 C 173.773438 183.734375 171.5 182.546875 169.367188 181.082031 C 169.222656 180.964844 169.085938 180.835938 168.953125 180.699219 C 169.105469 180.6875 169.253906 180.6875 169.402344 180.699219 C 170.453125 180.945312 171.492188 181.21875 172.546875 181.441406 C 173.523438 181.648438 174.515625 181.777344 175.488281 181.988281 C 176.558594 182.21875 177.605469 182.605469 178.683594 182.75 C 180.808594 183.042969 182.753906 183.851562 184.71875 184.625 C 185.269531 184.84375 185.722656 184.960938 186.222656 184.488281 C 186.609375 184.125 187.054688 184.09375 187.414062 184.640625 C 187.53125 184.820312 187.804688 184.941406 188.03125 184.988281 C 188.4375 185.058594 188.84375 185.101562 189.253906 185.113281 C 190.722656 185.203125 192.195312 185.277344 193.664062 185.378906 C 194.144531 185.410156 194.421875 185.277344 194.40625 184.742188 C 194.386719 184.277344 194.605469 184.085938 195.089844 184.125 C 195.585938 184.167969 196.078125 184.167969 196.574219 184.125 C 198.4375 183.976562 200.3125 184.417969 202.183594 183.792969 C 203.890625 183.226562 205.6875 182.917969 207.449219 182.5 C 208.273438 182.300781 209.09375 182.015625 209.933594 181.921875 C 211.292969 181.769531 212.671875 181.738281 214.039062 181.65625 C 214.457031 181.632812 214.765625 181.472656 214.773438 181.007812 C 214.785156 180.5 215.011719 180.484375 215.414062 180.648438 C 215.828125 180.808594 216.257812 180.933594 216.691406 181.019531 C 216.765625 181.035156 216.996094 180.726562 216.976562 180.703125 C 216.429688 179.996094 217.050781 179.804688 217.488281 179.582031 C 221.015625 177.792969 224.597656 176.097656 228.074219 174.214844 C 230.785156 172.75 233.386719 171.082031 236.007812 169.445312 C 237.523438 168.519531 238.992188 167.511719 240.398438 166.421875 C 242.425781 164.824219 244.449219 163.195312 246.304688 161.402344 C 248.382812 159.414062 250.34375 157.304688 252.179688 155.085938 C 254.828125 151.851562 256.925781 148.238281 258.835938 144.515625 C 260.832031 140.660156 262.40625 136.597656 263.53125 132.402344 C 264 130.65625 264.179688 128.835938 264.601562 127.078125 C 264.953125 125.585938 265.074219 124.046875 264.960938 122.519531 C 264.953125 122.394531 265.011719 122.28125 265.015625 122.15625 C 265.054688 121.261719 265.113281 120.367188 265.121094 119.472656 C 265.128906 118.191406 264.996094 116.902344 265.121094 115.636719 C 265.179688 114.964844 265.335938 114.335938 265.03125 113.695312 C 264.859375 113.335938 264.992188 113.089844 265.3125 112.867188 C 265.515625 112.730469 265.773438 112.496094 265.785156 112.292969 C 265.839844 111.609375 265.816406 110.917969 265.714844 110.238281 C 265.394531 108.4375 264.726562 106.691406 265.042969 104.796875 C 265.097656 104.34375 265.007812 103.890625 264.78125 103.496094 C 263.574219 101.402344 263.300781 99.035156 262.726562 96.753906 C 262.1875 94.59375 261.460938 92.527344 259.800781 90.917969 C 259.429688 90.5625 259.136719 90.136719 258.933594 89.667969 C 256.96875 84.894531 254.261719 80.550781 251.347656 76.320312 C 249.085938 73.03125 246.628906 69.898438 243.824219 67.066406 C 241.664062 64.894531 239.316406 62.914062 237.109375 60.789062 C 234.785156 58.546875 232.234375 56.589844 229.632812 54.699219 C 228.226562 53.675781 226.765625 52.738281 225.027344 52.335938 C 224.574219 52.230469 224.257812 52.3125 224.0625 52.726562 C 223.867188 53.140625 223.566406 53.125 223.246094 52.964844 C 222.628906 52.652344 222.019531 52.320312 221.429688 51.957031 C 221.1875 51.804688 221.015625 51.546875 220.707031 51.226562 C 221.480469 51.445312 222.070312 51.667969 222.683594 51.753906 C 222.941406 51.789062 223.238281 51.535156 223.515625 51.410156 C 223.347656 51.136719 223.242188 50.738281 222.996094 50.609375 C 221.359375 49.742188 219.714844 48.886719 218.039062 48.105469 C 212.511719 45.527344 206.824219 43.414062 200.839844 42.152344 C 199.585938 41.886719 198.34375 41.566406 197.082031 41.371094 C 195.554688 41.136719 193.992188 41.09375 192.480469 40.8125 C 190.570312 40.445312 188.628906 40.289062 186.6875 40.347656 C 184.65625 40.421875 182.609375 40.207031 180.582031 40.285156 C 178.382812 40.371094 176.1875 40.625 173.996094 40.839844 C 172.820312 40.957031 171.648438 41.117188 170.484375 41.320312 C 169.0625 41.566406 167.652344 41.875 166.238281 42.171875 C 165.484375 42.332031 164.734375 42.519531 163.988281 42.722656 C 163.585938 42.828125 163.460938 43.082031 163.589844 43.519531 C 163.699219 43.890625 163.675781 44.304688 163.726562 44.855469 C 163.953125 44.867188 164.3125 44.980469 164.601562 44.878906 C 165.21875 44.675781 165.816406 44.40625 166.382812 44.082031 C 167.472656 43.453125 167.882812 43.386719 169.230469 43.878906 C 168.746094 44.09375 168.355469 44.308594 167.933594 44.445312 C 167.101562 44.707031 166.242188 44.886719 165.417969 45.167969 C 163.652344 45.765625 161.863281 45.621094 160.066406 45.433594 C 159.964844 45.421875 159.804688 45.320312 159.792969 45.242188 C 159.785156 45.175781 159.796875 45.109375 159.816406 45.046875 C 159.839844 44.984375 159.878906 44.925781 159.925781 44.878906 C 160.066406 44.777344 160.269531 44.761719 160.4375 44.695312 C 160.992188 44.464844 161.539062 44.21875 161.929688 43.539062 C 160.640625 43.75 159.46875 43.886719 158.324219 44.148438 C 157.3125 44.394531 156.316406 44.699219 155.339844 45.066406 C 155.015625 45.179688 154.546875 45.40625 154.476562 45.667969 C 154.125 46.992188 153.085938 47.277344 151.984375 47.679688 C 150.046875 48.382812 148.175781 49.253906 146.277344 50.054688 C 145.445312 50.402344 144.621094 50.761719 143.785156 51.089844 C 143.613281 51.15625 143.332031 51.171875 143.210938 51.074219 C 142.757812 50.714844 142.925781 49.851562 143.457031 49.582031 C 144.035156 49.285156 144.589844 48.933594 145.179688 48.664062 C 146.417969 48.097656 147.667969 47.566406 148.917969 47.019531 C 149.359375 46.828125 149.65625 46.945312 149.847656 47.40625 C 150.023438 47.847656 150.40625 47.964844 150.808594 47.804688 C 151.460938 47.550781 152.089844 47.246094 152.6875 46.886719 C 152.933594 46.734375 153.234375 46.304688 153.179688 46.082031 C 153.03125 45.476562 153.304688 45.308594 153.777344 45.179688 C 154.488281 44.988281 155.207031 44.808594 155.902344 44.574219 C 156.316406 44.433594 156.554688 44.09375 156.429688 43.648438 C 156.289062 43.171875 155.851562 43.292969 155.542969 43.378906 C 153.492188 43.953125 151.402344 44.429688 149.417969 45.171875 C 144.726562 46.933594 140.089844 48.824219 135.429688 50.660156 C 135.1875 50.757812 134.933594 50.832031 134.691406 50.910156 C 134.671875 50.859375 134.648438 50.808594 134.625 50.757812 C 134.785156 50.609375 134.960938 50.476562 135.148438 50.363281 C 135.628906 50.140625 136.152344 49.992188 136.609375 49.734375 C 137.125 49.457031 137.605469 49.117188 138.035156 48.722656 C 138.332031 48.4375 138.210938 48.152344 137.738281 48.15625 C 137.386719 48.15625 137.035156 48.15625 136.683594 48.15625 L 136.652344 47.933594 C 137.058594 47.757812 137.453125 47.539062 137.871094 47.417969 C 139.375 46.984375 140.886719 46.59375 142.394531 46.167969 C 144.949219 45.445312 147.0625 44.027344 148.785156 42.015625 C 149.042969 41.71875 149.226562 41.355469 149.527344 40.898438 C 148.984375 40.898438 148.578125 40.808594 148.230469 40.914062 C 147.378906 41.179688 146.542969 41.511719 145.71875 41.859375 C 142.421875 43.257812 139.171875 44.761719 135.699219 45.707031 C 135.078125 45.878906 134.417969 45.894531 133.777344 45.984375 C 133.757812 45.910156 133.734375 45.832031 133.714844 45.757812 C 134.023438 45.570312 134.320312 45.355469 134.640625 45.195312 C 136.519531 44.253906 138.382812 43.285156 140.289062 42.398438 C 143.355469 40.96875 146.453125 39.605469 149.527344 38.191406 C 151.359375 37.347656 153.175781 36.460938 154.992188 35.574219 C 155.117188 35.515625 155.214844 35.378906 155.429688 35.179688 C 155.242188 35.167969 155.058594 35.167969 154.871094 35.179688 C 153.949219 35.359375 153.007812 35.488281 152.105469 35.746094 C 149.921875 36.363281 147.757812 37.058594 145.578125 37.714844 C 143.289062 38.410156 141.089844 39.285156 139.058594 40.59375 C 137.550781 41.5625 135.925781 42.359375 134.121094 42.644531 C 133.886719 42.679688 133.636719 42.59375 133.398438 42.566406 C 133.398438 42.5 133.398438 42.433594 133.398438 42.367188 C 133.820312 42.09375 134.292969 41.867188 134.652344 41.523438 C 134.898438 41.277344 135.179688 40.847656 135.125 40.558594 C 135.03125 40.050781 135.234375 39.816406 135.585938 39.605469 C 136.519531 39.0625 137.5 38.597656 138.394531 37.996094 C 139.308594 37.394531 140.167969 36.707031 140.953125 35.945312 C 141.316406 35.566406 141.777344 35.292969 142.28125 35.164062 C 142.847656 35.011719 143.460938 34.910156 143.9375 34.605469 C 145 33.921875 146 33.136719 147.011719 32.371094 C 147.195312 32.234375 147.308594 32 147.453125 31.804688 L 147.390625 31.589844 C 146.96875 31.636719 146.523438 31.597656 146.136719 31.742188 C 144.5625 32.347656 142.996094 32.984375 141.441406 33.652344 C 138.171875 35.0625 134.921875 36.523438 131.640625 37.914062 C 130.109375 38.566406 128.53125 39.117188 126.960938 39.671875 C 126.8125 39.71875 126.660156 39.738281 126.507812 39.726562 C 126.355469 39.714844 126.207031 39.671875 126.066406 39.601562 C 125.699219 39.351562 125.355469 39.289062 124.980469 39.484375 C 124.1875 39.902344 123.402344 40.332031 122.621094 40.769531 C 121.957031 41.140625 121.304688 41.527344 120.648438 41.90625 C 120.605469 41.84375 120.566406 41.78125 120.527344 41.71875 C 121.230469 41.101562 121.875 40.386719 122.65625 39.878906 C 124.796875 38.496094 127.019531 37.238281 129.160156 35.847656 C 130.199219 35.171875 131.136719 34.316406 132.101562 33.53125 C 132.222656 33.429688 132.292969 33.25 132.386719 33.105469 L 132.273438 32.953125 L 127.347656 35.242188 C 127.308594 35.171875 127.273438 35.097656 127.234375 35.023438 C 127.382812 34.890625 127.535156 34.765625 127.695312 34.652344 C 128.445312 34.15625 129.175781 33.628906 129.960938 33.195312 C 133.710938 31.113281 137.464844 29.050781 141.230469 27.007812 C 142.398438 26.375 143.632812 25.871094 144.804688 25.25 C 145.050781 25.117188 145.144531 24.71875 145.308594 24.441406 C 144.992188 24.351562 144.652344 24.144531 144.359375 24.195312 C 143.683594 24.316406 143.019531 24.507812 142.378906 24.769531 C 140.378906 25.585938 138.371094 26.386719 136.425781 27.316406 C 134.433594 28.261719 132.511719 29.359375 130.550781 30.375 C 129.828125 30.746094 129.082031 31.085938 128.347656 31.441406 L 128.273438 31.304688 C 128.433594 31.152344 128.605469 31.007812 128.785156 30.882812 C 130.707031 29.753906 132.585938 28.53125 134.574219 27.527344 C 138.027344 25.777344 141.542969 24.148438 145.171875 22.789062 C 148.308594 21.613281 151.460938 20.472656 154.617188 19.335938 C 155.144531 19.144531 155.480469 18.902344 155.351562 18.273438 C 155.261719 17.855469 155.472656 17.613281 155.828125 17.386719 C 157.515625 16.28125 159.347656 15.777344 161.355469 15.988281 C 162.230469 16.082031 162.871094 15.828125 163.4375 15.117188 C 163.699219 14.785156 164.300781 14.488281 164.691406 14.542969 C 166.210938 14.761719 167.511719 14.230469 168.804688 13.59375 C 169.089844 13.453125 169.316406 13.195312 169.570312 12.992188 L 169.453125 12.730469 C 163.558594 13.253906 157.84375 14.785156 152.085938 16.078125 L 152.019531 15.890625 L 155.148438 14.332031 C 154.957031 14.21875 154.730469 14.175781 154.507812 14.210938 C 153.820312 14.285156 153.132812 14.375 152.445312 14.464844 C 152.101562 14.496094 151.761719 14.554688 151.425781 14.636719 C 149.667969 15.136719 147.890625 15.589844 146.164062 16.1875 C 141.578125 17.769531 137.121094 19.679688 132.738281 21.753906 C 129.769531 23.160156 126.847656 24.660156 123.902344 26.109375 C 123.421875 26.34375 122.925781 26.542969 122.289062 26.820312 C 122.421875 26.484375 122.511719 26.339844 122.535156 26.1875 C 122.570312 25.972656 122.648438 25.644531 122.550781 25.566406 C 122.394531 25.445312 122.09375 25.433594 121.882812 25.492188 C 121.492188 25.589844 121.113281 25.746094 120.761719 25.949219 C 119.433594 26.753906 118.078125 27.527344 116.824219 28.433594 C 115.503906 29.390625 114.105469 30.289062 113.277344 31.792969 C 113.113281 32.058594 112.875 32.265625 112.59375 32.398438 C 112.375 32.5 112.078125 32.4375 111.816406 32.449219 C 111.902344 32.226562 111.9375 31.957031 112.085938 31.789062 C 112.984375 30.855469 113.863281 29.890625 114.835938 29.039062 C 116.746094 27.363281 118.679688 25.707031 120.671875 24.132812 C 122.191406 22.929688 123.804688 21.839844 125.40625 20.738281 C 127.324219 19.417969 129.289062 18.164062 131.203125 16.832031 C 133.386719 15.316406 135.527344 13.738281 137.703125 12.210938 C 137.832031 12.128906 137.976562 12.074219 138.125 12.050781 C 138.277344 12.023438 138.429688 12.027344 138.578125 12.0625 C 139.90625 12.464844 140.96875 11.925781 141.875 11.085938 C 142.777344 10.246094 143.746094 9.777344 145.019531 9.902344 C 146.164062 10.011719 147.238281 9.625 148.265625 9.140625 C 149.828125 8.398438 151.355469 7.574219 152.960938 6.941406 C 153.996094 6.53125 155.105469 6.148438 156.28125 6.480469 C 156.625 6.585938 156.992188 6.574219 157.328125 6.449219 C 157.664062 6.320312 157.949219 6.085938 158.132812 5.777344 C 158.289062 5.539062 158.367188 5.238281 158.554688 5.035156 C 158.738281 4.832031 159.054688 4.585938 159.210938 4.644531 C 160.664062 5.183594 162 4.519531 163.351562 4.246094 C 164.675781 3.972656 165.945312 3.429688 167.257812 3.085938 C 167.847656 2.929688 168.585938 2.722656 169.03125 3.332031 C 169.378906 3.808594 169.769531 3.789062 170.214844 3.726562 C 171.929688 3.496094 173.640625 3.1875 175.363281 3.023438 C 177.035156 2.859375 178.71875 2.773438 180.398438 2.773438 C 183.75 2.773438 187.101562 2.851562 190.453125 2.898438 C 191.132812 2.90625 191.8125 2.867188 192.484375 2.917969 C 194.320312 3.050781 196.152344 3.269531 197.988281 3.363281 C 199.078125 3.417969 199.992188 3.609375 200.527344 4.699219 C 200.773438 5.210938 201.265625 5.378906 201.835938 5.113281 C 202.070312 4.988281 202.324219 4.90625 202.585938 4.875 C 203.828125 4.84375 205.117188 4.402344 206.289062 5.207031 C 206.332031 5.238281 206.410156 5.226562 206.46875 5.238281 C 207.519531 5.460938 208.570312 5.695312 209.621094 5.914062 C 210.933594 6.1875 212.265625 6.394531 213.558594 6.738281 C 214.851562 7.082031 216.152344 7.460938 217.121094 8.523438 C 217.339844 8.769531 217.699219 8.886719 218.003906 9.042969 C 218.414062 9.253906 218.84375 9.433594 219.253906 9.652344 C 219.625 9.851562 219.964844 10.136719 220.355469 10.304688 C 223.105469 11.472656 225.835938 12.6875 228.625 13.757812 C 232.007812 15.054688 235.484375 16.097656 238.722656 17.746094 C 240.730469 18.769531 242.734375 19.800781 244.359375 21.402344 C 246.136719 23.160156 248.085938 24.636719 250.433594 25.585938 C 251.09375 25.867188 251.640625 26.359375 251.984375 26.984375 C 252.808594 28.640625 254.175781 29.667969 255.679688 30.554688 C 257.492188 31.632812 259.101562 32.972656 260.621094 34.390625 C 262.835938 36.453125 264.976562 38.59375 267.039062 40.8125 C 269.105469 43.039062 271.066406 45.363281 272.992188 47.714844 C 274.273438 49.277344 275.476562 50.914062 276.597656 52.597656 C 278.5 55.453125 280.375 58.335938 282.136719 61.28125 C 283.410156 63.414062 284.464844 65.679688 285.648438 67.867188 C 286.871094 70.128906 288.207031 72.328125 289.34375 74.632812 C 289.957031 75.871094 290.304688 77.257812 290.667969 78.605469 C 291.03125 79.957031 291.148438 81.382812 291.976562 82.523438 C 292.632812 83.40625 293.089844 84.417969 293.316406 85.496094 C 293.441406 86.09375 293.488281 86.707031 293.582031 87.3125 C 293.839844 88.984375 294.113281 90.652344 294.367188 92.328125 C 294.652344 94.214844 295.289062 95.960938 296.433594 97.503906 C 296.679688 97.84375 296.660156 98.132812 296.371094 98.433594 C 295.628906 99.191406 295.460938 100.078125 295.75 101.09375 C 295.835938 101.390625 295.917969 101.867188 295.761719 102.027344 C 295.125 102.675781 295.128906 103.492188 294.953125 104.289062 C 294.8125 104.914062 294.953125 105.394531 295.242188 105.910156 C 295.585938 106.488281 295.878906 107.089844 296.121094 107.714844 C 296.394531 108.46875 296.234375 108.613281 295.414062 108.472656 C 295.042969 109.296875 294.761719 110.117188 295.027344 111.070312 C 295.265625 111.925781 295.125 112.785156 294.753906 113.589844 C 294.457031 114.222656 293.933594 114.40625 293.402344 114.074219 C 293.28125 114 293.21875 113.828125 293.128906 113.703125 C 293.265625 113.648438 293.417969 113.515625 293.535156 113.542969 C 294.136719 113.695312 294.230469 113.246094 294.359375 112.863281 C 294.414062 112.644531 294.445312 112.421875 294.449219 112.195312 C 294.535156 111.265625 294.855469 110.339844 294.335938 109.417969 C 294.222656 109.210938 294.285156 108.839844 294.382812 108.59375 C 294.789062 107.558594 294.691406 106.539062 294.363281 105.523438 C 294.230469 105.113281 294.132812 104.542969 293.550781 104.601562 C 292.972656 104.65625 293.148438 105.253906 292.996094 105.621094 C 292.902344 105.839844 292.683594 106.125 292.488281 106.152344 C 292.03125 106.210938 291.785156 106.441406 291.785156 106.851562 C 291.785156 108.28125 291.839844 109.714844 291.84375 111.148438 C 291.847656 111.542969 291.78125 111.9375 291.648438 112.308594 C 291.402344 112.957031 290.921875 113.546875 290.820312 114.207031 C 290.550781 115.863281 290.386719 117.535156 290.324219 119.214844 C 290.273438 121.121094 290.027344 122.960938 289.183594 124.6875 C 288.898438 125.269531 288.902344 125.839844 289.070312 126.464844 C 289.324219 127.410156 289.347656 128.375 288.859375 129.269531 C 288.746094 129.472656 288.511719 129.605469 288.265625 129.828125 C 288.195312 129.570312 288.148438 129.492188 288.15625 129.414062 C 288.34375 127.886719 287.84375 126.34375 288.296875 124.820312 C 288.382812 124.503906 288.421875 124.175781 288.421875 123.847656 C 288.472656 121.730469 288.527344 119.617188 288.546875 117.5 C 288.566406 115.4375 288.566406 113.375 288.546875 111.3125 C 288.53125 109.839844 288.5 108.359375 288.402344 106.886719 C 288.382812 106.5625 288.136719 106.121094 287.863281 105.960938 C 287.078125 105.496094 287 105.371094 287.585938 104.632812 C 287.914062 104.226562 287.816406 103.910156 287.574219 103.527344 C 287.347656 103.171875 287.09375 102.800781 287.003906 102.398438 C 286.835938 101.664062 286.84375 100.890625 286.660156 100.160156 C 286.125 98.007812 285.578125 95.859375 284.957031 93.734375 C 284.152344 90.984375 283.035156 88.355469 281.738281 85.804688 C 281.550781 85.433594 281.207031 85.148438 280.933594 84.824219 L 280.628906 84.925781 C 280.613281 85.347656 280.503906 85.792969 280.601562 86.183594 C 280.839844 87.230469 281.234375 88.246094 281.4375 89.296875 C 281.636719 90.347656 281.9375 91.351562 282.65625 92.1875 C 282.832031 92.414062 282.980469 92.660156 283.101562 92.917969 C 283.296875 93.289062 283.292969 93.59375 282.878906 93.859375 C 282.777344 93.9375 282.691406 94.03125 282.628906 94.140625 C 282.566406 94.253906 282.523438 94.375 282.507812 94.5 C 282.464844 94.988281 282.476562 95.476562 282.539062 95.960938 C 282.753906 97.664062 283.066406 99.355469 283.21875 101.0625 C 283.445312 103.554688 283.644531 106.058594 283.707031 108.558594 C 283.769531 111.105469 283.679688 113.660156 283.597656 116.210938 C 283.535156 118.160156 283.441406 120.113281 283.25 122.054688 C 283.046875 124.148438 282.71875 126.230469 282.433594 128.3125 C 282.246094 129.675781 282.109375 131.035156 281.832031 132.375 C 281.453125 134.222656 281.003906 136.0625 280.507812 137.882812 C 279.804688 140.492188 279.097656 143.105469 278.273438 145.679688 C 276.929688 149.789062 275.261719 153.785156 273.285156 157.628906 C 269.875 164.28125 265.667969 170.496094 260.753906 176.128906 C 259.769531 177.261719 258.683594 178.308594 257.636719 179.386719 C 257.066406 179.976562 256.515625 180.59375 255.890625 181.117188 C 255.679688 181.296875 255.269531 181.273438 254.953125 181.292969 C 254.375 181.328125 253.746094 181.1875 253.230469 181.375 C 252.59375 181.605469 252.058594 182.109375 251.464844 182.464844 C 251.175781 182.617188 250.875 182.75 250.570312 182.863281 L 250.570312 181.886719 C 250.097656 182.027344 249.582031 182.074219 249.191406 182.320312 C 247.300781 183.496094 245.429688 184.707031 243.574219 185.9375 C 241.085938 187.582031 238.640625 189.292969 236.136719 190.910156 C 232.15625 193.484375 228.117188 195.972656 223.804688 197.953125 C 221.589844 198.972656 219.292969 199.820312 217 200.648438 C 215.492188 201.191406 213.929688 201.574219 212.386719 202.007812 C 211.414062 202.28125 210.496094 202.796875 209.417969 202.589844 C 209.199219 202.546875 208.9375 202.71875 208.640625 202.808594 C 208.777344 203.054688 208.871094 203.210938 208.953125 203.371094 C 209.171875 203.804688 209.039062 204.117188 208.5625 204.164062 C 207.613281 204.28125 206.65625 204.414062 205.703125 204.429688 C 203.175781 204.460938 200.648438 204.359375 198.125 204.457031 C 196.789062 204.511719 195.472656 204.886719 194.140625 205.078125 C 193.636719 205.152344 193.117188 205.128906 192.601562 205.140625 C 191.652344 205.167969 190.59375 204.925781 189.78125 205.273438 C 188.410156 205.859375 187.023438 205.796875 185.675781 205.730469 C 183.480469 205.621094 181.304688 205.183594 179.113281 204.941406 C 178.558594 204.882812 177.925781 204.738281 177.308594 205.304688 L 178.738281 206.214844 L 178.65625 206.414062 C 177.675781 206.277344 176.6875 206.191406 175.726562 205.988281 C 174.910156 205.8125 174.871094 205.574219 175.46875 204.921875 C 175.304688 204.828125 175.164062 204.675781 175.003906 204.660156 C 174.117188 204.535156 173.226562 204.382812 172.335938 204.375 C 171.996094 204.375 171.601562 204.675781 171.332031 204.941406 C 170.992188 205.273438 170.65625 205.367188 170.21875 205.242188 C 169.835938 205.113281 169.441406 205.003906 169.042969 204.921875 C 167.734375 204.699219 166.421875 204.503906 165.113281 204.304688 C 164.519531 204.210938 163.925781 204.125 163.332031 204.035156 L 163.285156 204.210938 C 163.734375 204.4375 164.167969 204.71875 164.644531 204.886719 C 165.835938 205.304688 167.0625 205.628906 168.242188 206.078125 C 169.132812 206.417969 169.980469 206.882812 170.828125 207.328125 C 170.984375 207.414062 171.039062 207.679688 171.144531 207.863281 C 170.957031 207.953125 170.773438 208.117188 170.582031 208.121094 C 170.328125 208.128906 170.070312 207.992188 169.808594 207.957031 C 169.492188 207.917969 169.167969 207.921875 168.851562 207.90625 L 168.804688 208.152344 L 170.125 208.664062 L 170.078125 208.886719 C 169.730469 208.871094 169.382812 208.835938 169.039062 208.78125 C 168.085938 208.582031 167.132812 208.367188 166.1875 208.128906 C 164.574219 207.726562 162.960938 207.308594 161.351562 206.882812 C 160 206.523438 158.65625 206.140625 157.304688 205.769531 C 156.285156 205.492188 155.265625 205.222656 154.238281 204.972656 C 153.433594 204.773438 152.621094 204.585938 151.804688 204.4375 C 151.636719 204.410156 151.433594 204.59375 151.242188 204.679688 C 151.332031 204.875 151.375 205.132812 151.523438 205.246094 C 151.832031 205.476562 152.195312 205.632812 152.539062 205.808594 C 155.96875 207.601562 159.648438 208.710938 163.375 209.675781 C 164.808594 210.046875 166.257812 210.355469 167.6875 210.738281 C 169.136719 211.125 170.582031 211.535156 172.011719 211.972656 C 173.125 212.320312 174.210938 212.71875 175.296875 213.121094 C 175.441406 213.175781 175.53125 213.367188 175.644531 213.492188 C 175.554688 213.558594 175.464844 213.667969 175.363281 213.679688 C 174.375 213.816406 173.382812 213.945312 172.386719 214.058594 C 172.015625 214.101562 171.476562 213.957031 171.445312 214.460938 C 171.433594 214.667969 171.96875 214.921875 172.269531 215.132812 C 172.34375 215.1875 172.472656 215.152344 172.570312 215.183594 C 173.03125 215.34375 173.511719 215.46875 173.941406 215.679688 C 174.179688 215.804688 174.339844 216.074219 174.535156 216.277344 L 174.402344 216.449219 C 174.207031 216.441406 174.007812 216.417969 173.816406 216.375 C 173.058594 216.144531 172.320312 215.8125 171.542969 215.679688 C 170.683594 215.53125 169.808594 215.484375 168.9375 215.542969 C 168.234375 215.589844 168.070312 216.101562 168.578125 216.597656 C 169.023438 217.042969 169.519531 217.546875 170.089844 217.730469 C 171.535156 218.203125 173.03125 218.507812 174.507812 218.882812 C 175.410156 219.109375 176.332031 219.285156 177.207031 219.59375 C 177.671875 219.757812 178.058594 220.144531 178.460938 220.460938 C 178.503906 220.511719 178.53125 220.574219 178.550781 220.636719 C 178.566406 220.699219 178.566406 220.765625 178.554688 220.832031 C 178.542969 220.902344 178.367188 220.964844 178.261719 220.976562 C 178.078125 221.007812 177.890625 221 177.707031 220.957031 C 176.402344 220.546875 175.097656 220.160156 173.703125 220.226562 C 173.539062 220.210938 173.378906 220.175781 173.222656 220.121094 C 172.085938 219.875 170.957031 219.605469 169.8125 219.40625 C 169.382812 219.332031 168.925781 219.429688 168.484375 219.449219 L 168.460938 219.683594 C 168.652344 219.78125 168.832031 219.9375 169.03125 219.976562 C 170.320312 220.203125 171.609375 220.402344 172.898438 220.617188 C 173.140625 220.644531 173.375 220.707031 173.597656 220.804688 C 174.1875 221.089844 174.761719 221.398438 175.328125 221.714844 C 175.597656 221.863281 175.84375 222.054688 176.101562 222.222656 C 176.078125 222.289062 176.058594 222.347656 176.035156 222.414062 C 175.78125 222.414062 175.523438 222.460938 175.28125 222.414062 C 174.089844 222.167969 172.894531 221.90625 171.710938 221.617188 C 169.308594 221.027344 166.910156 220.40625 164.503906 219.816406 C 163.019531 219.453125 161.550781 219.035156 160.046875 218.828125 C 159.191406 218.703125 158.5625 218.40625 158.082031 217.75 C 157.835938 217.394531 157.511719 217.105469 157.132812 216.898438 C 156.753906 216.691406 156.332031 216.574219 155.902344 216.554688 C 154.558594 216.484375 153.230469 215.980469 151.851562 216.390625 C 151.585938 216.46875 151.207031 216.300781 150.925781 216.15625 C 150.195312 215.792969 149.453125 215.433594 148.78125 214.976562 C 147.5625 214.152344 146.191406 213.589844 144.746094 213.324219 C 143.632812 213.109375 142.507812 212.925781 141.394531 212.6875 C 140.882812 212.578125 140.402344 212.304688 139.886719 212.222656 C 139.171875 212.113281 139.023438 212.363281 139.304688 213.027344 C 139.402344 213.265625 139.457031 213.523438 139.535156 213.769531 L 139.367188 213.871094 C 139.21875 213.785156 138.988281 213.734375 138.9375 213.605469 C 138.648438 212.914062 138.039062 212.652344 137.4375 212.335938 C 137.238281 212.230469 137.003906 211.851562 137.050781 211.671875 C 137.25 210.945312 136.828125 210.683594 136.3125 210.40625 C 134.765625 209.574219 133.191406 208.78125 131.707031 207.851562 C 128.640625 205.933594 125.578125 204.015625 122.609375 201.953125 C 120.332031 200.375 118.195312 198.59375 116.007812 196.890625 C 115.425781 196.4375 114.800781 196 114.339844 195.4375 C 112.402344 193.042969 110.492188 190.628906 108.621094 188.1875 C 107.035156 186.113281 105.488281 184.011719 103.554688 182.234375 C 103.367188 182.042969 103.152344 181.882812 102.921875 181.753906 C 102.753906 181.667969 102.535156 181.695312 102.339844 181.675781 C 102.328125 181.867188 102.253906 182.082031 102.3125 182.25 C 102.4375 182.554688 102.59375 182.84375 102.773438 183.117188 C 104.566406 185.972656 106.660156 188.625 109.023438 191.019531 C 110.691406 192.722656 112.5 194.292969 114.242188 195.917969 C 115.609375 197.195312 116.949219 198.503906 118.351562 199.738281 C 120.214844 201.375 122.140625 202.945312 124.015625 204.5625 C 124.289062 204.800781 124.433594 205.183594 124.632812 205.503906 L 124.449219 205.675781 C 124.148438 205.53125 123.820312 205.429688 123.554688 205.230469 C 120.078125 202.671875 116.570312 200.148438 113.148438 197.515625 C 111.171875 195.992188 109.328125 194.296875 107.429688 192.667969 C 106.382812 191.765625 105.554688 190.761719 105.609375 189.234375 C 105.632812 188.492188 104.984375 187.925781 104.382812 188.105469 C 103.78125 188.28125 103.484375 188.011719 103.183594 187.625 C 102.0625 186.1875 100.925781 184.761719 99.847656 183.292969 C 96.667969 179.027344 93.867188 174.492188 91.464844 169.742188 C 88.6875 164.203125 86.460938 158.402344 84.824219 152.425781 C 83.6875 148.277344 82.722656 144.101562 82.0625 139.851562 C 81.957031 139.167969 81.75 138.5 81.664062 137.816406 C 81.488281 136.417969 81.351562 135.011719 81.222656 133.605469 C 81.0625 131.808594 80.921875 130.015625 80.78125 128.21875 C 80.746094 127.808594 80.742188 127.398438 80.707031 126.988281 C 80.574219 125.417969 80.460938 123.84375 80.285156 122.277344 C 80.226562 121.75 80.109375 121.179688 79.851562 120.726562 C 78.953125 119.144531 78.449219 117.453125 78.457031 115.644531 C 78.5 112.769531 78.457031 109.898438 78.78125 106.992188 Z M 78.78125 106.992188 " clip-rule="nonzero"/></clipPath><linearGradient x1="1897.420271" gradientTransform="matrix(-0.123584, 0, 0, 0.123729, 296.60345, 2.77407)" y1="190.740499" x2="-126.395185" gradientUnits="userSpaceOnUse" y2="1593.126216" id="77187cc4d2"><stop stop-opacity="1" stop-color="rgb(100%, 0%, 0%)" offset="0"/><stop stop-opacity="1" stop-color="rgb(100%, 0%, 0%)" offset="0.0625"/><stop stop-opacity="1" stop-color="rgb(99.771118%, 0.18158%, 0.239563%)" offset="0.0664062"/><stop stop-opacity="1" stop-color="rgb(99.543762%, 0.363159%, 0.480652%)" offset="0.0703125"/><stop stop-opacity="1" stop-color="rgb(99.179077%, 0.654602%, 0.865173%)" offset="0.0742188"/><stop stop-opacity="1" stop-color="rgb(98.815918%, 0.946045%, 1.249695%)" offset="0.078125"/><stop stop-opacity="1" stop-color="rgb(98.451233%, 1.237488%, 1.634216%)" offset="0.0820312"/><stop stop-opacity="1" stop-color="rgb(98.086548%, 1.528931%, 2.018738%)" offset="0.0859375"/><stop stop-opacity="1" stop-color="rgb(97.721863%, 1.820374%, 2.403259%)" offset="0.0898438"/><stop stop-opacity="1" stop-color="rgb(97.357178%, 2.111816%, 2.787781%)" offset="0.09375"/><stop stop-opacity="1" stop-color="rgb(96.992493%, 2.403259%, 3.172302%)" offset="0.0976563"/><stop stop-opacity="1" stop-color="rgb(96.629333%, 2.694702%, 3.55835%)" offset="0.101563"/><stop stop-opacity="1" stop-color="rgb(96.264648%, 2.986145%, 3.942871%)" offset="0.105469"/><stop stop-opacity="1" stop-color="rgb(95.899963%, 3.277588%, 4.327393%)" offset="0.109375"/><stop stop-opacity="1" stop-color="rgb(95.535278%, 3.569031%, 4.711914%)" offset="0.113281"/><stop stop-opacity="1" stop-color="rgb(95.172119%, 3.860474%, 5.096436%)" offset="0.117188"/><stop stop-opacity="1" stop-color="rgb(94.807434%, 4.151917%, 5.480957%)" offset="0.121094"/><stop stop-opacity="1" stop-color="rgb(94.442749%, 4.443359%, 5.867004%)" offset="0.125"/><stop stop-opacity="1" stop-color="rgb(94.078064%, 4.733276%, 6.251526%)" offset="0.128906"/><stop stop-opacity="1" stop-color="rgb(93.714905%, 5.024719%, 6.636047%)" offset="0.132813"/><stop stop-opacity="1" stop-color="rgb(93.35022%, 5.316162%, 7.020569%)" offset="0.136719"/><stop stop-opacity="1" stop-color="rgb(92.985535%, 5.607605%, 7.40509%)" offset="0.140625"/><stop stop-opacity="1" stop-color="rgb(92.62085%, 5.899048%, 7.789612%)" offset="0.144531"/><stop stop-opacity="1" stop-color="rgb(92.25769%, 6.190491%, 8.175659%)" offset="0.148438"/><stop stop-opacity="1" stop-color="rgb(91.893005%, 6.481934%, 8.560181%)" offset="0.152344"/><stop stop-opacity="1" stop-color="rgb(91.52832%, 6.773376%, 8.944702%)" offset="0.15625"/><stop stop-opacity="1" stop-color="rgb(91.163635%, 7.064819%, 9.329224%)" offset="0.160156"/><stop stop-opacity="1" stop-color="rgb(90.800476%, 7.356262%, 9.713745%)" offset="0.164062"/><stop stop-opacity="1" stop-color="rgb(90.435791%, 7.647705%, 10.098267%)" offset="0.167969"/><stop stop-opacity="1" stop-color="rgb(90.071106%, 7.939148%, 10.482788%)" offset="0.171875"/><stop stop-opacity="1" stop-color="rgb(89.706421%, 8.230591%, 10.86731%)" offset="0.175781"/><stop stop-opacity="1" stop-color="rgb(89.343262%, 8.522034%, 11.253357%)" offset="0.179687"/><stop stop-opacity="1" stop-color="rgb(88.978577%, 8.813477%, 11.637878%)" offset="0.183594"/><stop stop-opacity="1" stop-color="rgb(88.613892%, 9.104919%, 12.0224%)" offset="0.1875"/><stop stop-opacity="1" stop-color="rgb(88.249207%, 9.396362%, 12.406921%)" offset="0.191406"/><stop stop-opacity="1" stop-color="rgb(87.884521%, 9.687805%, 12.791443%)" offset="0.195312"/><stop stop-opacity="1" stop-color="rgb(87.519836%, 9.979248%, 13.175964%)" offset="0.199219"/><stop stop-opacity="1" stop-color="rgb(87.156677%, 10.270691%, 13.562012%)" offset="0.203125"/><stop stop-opacity="1" stop-color="rgb(86.791992%, 10.562134%, 13.946533%)" offset="0.207031"/><stop stop-opacity="1" stop-color="rgb(86.427307%, 10.853577%, 14.331055%)" offset="0.210938"/><stop stop-opacity="1" stop-color="rgb(86.062622%, 11.14502%, 14.715576%)" offset="0.214844"/><stop stop-opacity="1" stop-color="rgb(85.699463%, 11.436462%, 15.100098%)" offset="0.21875"/><stop stop-opacity="1" stop-color="rgb(85.334778%, 11.727905%, 15.484619%)" offset="0.222656"/><stop stop-opacity="1" stop-color="rgb(84.970093%, 12.019348%, 15.869141%)" offset="0.226562"/><stop stop-opacity="1" stop-color="rgb(84.605408%, 12.309265%, 16.253662%)" offset="0.230469"/><stop stop-opacity="1" stop-color="rgb(84.242249%, 12.600708%, 16.639709%)" offset="0.234375"/><stop stop-opacity="1" stop-color="rgb(83.877563%, 12.892151%, 17.024231%)" offset="0.238281"/><stop stop-opacity="1" stop-color="rgb(83.512878%, 13.183594%, 17.408752%)" offset="0.242188"/><stop stop-opacity="1" stop-color="rgb(83.148193%, 13.475037%, 17.793274%)" offset="0.246094"/><stop stop-opacity="1" stop-color="rgb(82.785034%, 13.766479%, 18.177795%)" offset="0.25"/><stop stop-opacity="1" stop-color="rgb(82.420349%, 14.057922%, 18.562317%)" offset="0.253906"/><stop stop-opacity="1" stop-color="rgb(82.055664%, 14.349365%, 18.948364%)" offset="0.257812"/><stop stop-opacity="1" stop-color="rgb(81.690979%, 14.640808%, 19.332886%)" offset="0.261719"/><stop stop-opacity="1" stop-color="rgb(81.32782%, 14.932251%, 19.717407%)" offset="0.265625"/><stop stop-opacity="1" stop-color="rgb(80.963135%, 15.223694%, 20.101929%)" offset="0.269531"/><stop stop-opacity="1" stop-color="rgb(80.59845%, 15.515137%, 20.48645%)" offset="0.273438"/><stop stop-opacity="1" stop-color="rgb(80.233765%, 15.80658%, 20.870972%)" offset="0.277344"/><stop stop-opacity="1" stop-color="rgb(79.86908%, 16.098022%, 21.257019%)" offset="0.28125"/><stop stop-opacity="1" stop-color="rgb(79.504395%, 16.389465%, 21.641541%)" offset="0.285156"/><stop stop-opacity="1" stop-color="rgb(79.141235%, 16.680908%, 22.026062%)" offset="0.289062"/><stop stop-opacity="1" stop-color="rgb(78.77655%, 16.972351%, 22.410583%)" offset="0.292969"/><stop stop-opacity="1" stop-color="rgb(78.411865%, 17.263794%, 22.795105%)" offset="0.296875"/><stop stop-opacity="1" stop-color="rgb(78.04718%, 17.555237%, 23.179626%)" offset="0.300781"/><stop stop-opacity="1" stop-color="rgb(77.684021%, 17.84668%, 23.564148%)" offset="0.304688"/><stop stop-opacity="1" stop-color="rgb(77.319336%, 18.138123%, 23.948669%)" offset="0.308594"/><stop stop-opacity="1" stop-color="rgb(76.954651%, 18.429565%, 24.334717%)" offset="0.3125"/><stop stop-opacity="1" stop-color="rgb(76.589966%, 18.721008%, 24.719238%)" offset="0.316406"/><stop stop-opacity="1" stop-color="rgb(76.226807%, 19.012451%, 25.10376%)" offset="0.320312"/><stop stop-opacity="1" stop-color="rgb(75.862122%, 19.303894%, 25.488281%)" offset="0.324219"/><stop stop-opacity="1" stop-color="rgb(75.497437%, 19.595337%, 25.872803%)" offset="0.328125"/><stop stop-opacity="1" stop-color="rgb(75.132751%, 19.885254%, 26.257324%)" offset="0.332031"/><stop stop-opacity="1" stop-color="rgb(74.769592%, 20.176697%, 26.643372%)" offset="0.335938"/><stop stop-opacity="1" stop-color="rgb(74.404907%, 20.46814%, 27.027893%)" offset="0.339844"/><stop stop-opacity="1" stop-color="rgb(74.040222%, 20.759583%, 27.412415%)" offset="0.34375"/><stop stop-opacity="1" stop-color="rgb(73.675537%, 21.051025%, 27.796936%)" offset="0.347656"/><stop stop-opacity="1" stop-color="rgb(73.312378%, 21.342468%, 28.181458%)" offset="0.351562"/><stop stop-opacity="1" stop-color="rgb(72.947693%, 21.633911%, 28.565979%)" offset="0.355469"/><stop stop-opacity="1" stop-color="rgb(72.583008%, 21.925354%, 28.9505%)" offset="0.359375"/><stop stop-opacity="1" stop-color="rgb(72.218323%, 22.216797%, 29.335022%)" offset="0.363281"/><stop stop-opacity="1" stop-color="rgb(71.853638%, 22.50824%, 29.721069%)" offset="0.367188"/><stop stop-opacity="1" stop-color="rgb(71.488953%, 22.799683%, 30.105591%)" offset="0.371094"/><stop stop-opacity="1" stop-color="rgb(71.125793%, 23.091125%, 30.490112%)" offset="0.375"/><stop stop-opacity="1" stop-color="rgb(70.761108%, 23.382568%, 30.874634%)" offset="0.378906"/><stop stop-opacity="1" stop-color="rgb(70.396423%, 23.674011%, 31.259155%)" offset="0.382812"/><stop stop-opacity="1" stop-color="rgb(70.031738%, 23.965454%, 31.643677%)" offset="0.386719"/><stop stop-opacity="1" stop-color="rgb(69.668579%, 24.256897%, 32.029724%)" offset="0.390625"/><stop stop-opacity="1" stop-color="rgb(69.303894%, 24.54834%, 32.414246%)" offset="0.394531"/><stop stop-opacity="1" stop-color="rgb(68.939209%, 24.839783%, 32.798767%)" offset="0.398438"/><stop stop-opacity="1" stop-color="rgb(68.574524%, 25.131226%, 33.183289%)" offset="0.402344"/><stop stop-opacity="1" stop-color="rgb(68.211365%, 25.422668%, 33.56781%)" offset="0.40625"/><stop stop-opacity="1" stop-color="rgb(67.84668%, 25.714111%, 33.952332%)" offset="0.410156"/><stop stop-opacity="1" stop-color="rgb(67.481995%, 26.005554%, 34.338379%)" offset="0.414063"/><stop stop-opacity="1" stop-color="rgb(67.11731%, 26.296997%, 34.7229%)" offset="0.417969"/><stop stop-opacity="1" stop-color="rgb(66.75415%, 26.58844%, 35.107422%)" offset="0.421875"/><stop stop-opacity="1" stop-color="rgb(66.389465%, 26.878357%, 35.491943%)" offset="0.425781"/><stop stop-opacity="1" stop-color="rgb(66.02478%, 27.1698%, 35.876465%)" offset="0.429688"/><stop stop-opacity="1" stop-color="rgb(65.660095%, 27.461243%, 36.260986%)" offset="0.433594"/><stop stop-opacity="1" stop-color="rgb(65.296936%, 27.752686%, 36.645508%)" offset="0.4375"/><stop stop-opacity="1" stop-color="rgb(64.932251%, 28.044128%, 37.030029%)" offset="0.441406"/><stop stop-opacity="1" stop-color="rgb(64.567566%, 28.335571%, 37.416077%)" offset="0.445313"/><stop stop-opacity="1" stop-color="rgb(64.202881%, 28.627014%, 37.800598%)" offset="0.449219"/><stop stop-opacity="1" stop-color="rgb(63.839722%, 28.918457%, 38.18512%)" offset="0.453125"/><stop stop-opacity="1" stop-color="rgb(63.475037%, 29.2099%, 38.569641%)" offset="0.457031"/><stop stop-opacity="1" stop-color="rgb(63.110352%, 29.501343%, 38.954163%)" offset="0.460938"/><stop stop-opacity="1" stop-color="rgb(62.745667%, 29.792786%, 39.338684%)" offset="0.464844"/><stop stop-opacity="1" stop-color="rgb(62.380981%, 30.084229%, 39.724731%)" offset="0.46875"/><stop stop-opacity="1" stop-color="rgb(62.016296%, 30.375671%, 40.109253%)" offset="0.472656"/><stop stop-opacity="1" stop-color="rgb(61.653137%, 30.667114%, 40.493774%)" offset="0.476563"/><stop stop-opacity="1" stop-color="rgb(61.288452%, 30.958557%, 40.878296%)" offset="0.480469"/><stop stop-opacity="1" stop-color="rgb(60.923767%, 31.25%, 41.262817%)" offset="0.484375"/><stop stop-opacity="1" stop-color="rgb(60.559082%, 31.541443%, 41.647339%)" offset="0.488281"/><stop stop-opacity="1" stop-color="rgb(60.195923%, 31.832886%, 42.03186%)" offset="0.492188"/><stop stop-opacity="1" stop-color="rgb(59.831238%, 32.124329%, 42.416382%)" offset="0.496094"/><stop stop-opacity="1" stop-color="rgb(59.466553%, 32.415771%, 42.802429%)" offset="0.5"/><stop stop-opacity="1" stop-color="rgb(59.101868%, 32.707214%, 43.186951%)" offset="0.503906"/><stop stop-opacity="1" stop-color="rgb(58.738708%, 32.998657%, 43.571472%)" offset="0.507812"/><stop stop-opacity="1" stop-color="rgb(58.374023%, 33.2901%, 43.955994%)" offset="0.511719"/><stop stop-opacity="1" stop-color="rgb(58.009338%, 33.581543%, 44.340515%)" offset="0.515625"/><stop stop-opacity="1" stop-color="rgb(57.644653%, 33.872986%, 44.725037%)" offset="0.519531"/><stop stop-opacity="1" stop-color="rgb(57.281494%, 34.164429%, 45.111084%)" offset="0.523438"/><stop stop-opacity="1" stop-color="rgb(56.916809%, 34.454346%, 45.495605%)" offset="0.527344"/><stop stop-opacity="1" stop-color="rgb(56.552124%, 34.745789%, 45.880127%)" offset="0.53125"/><stop stop-opacity="1" stop-color="rgb(56.187439%, 35.037231%, 46.264648%)" offset="0.535156"/><stop stop-opacity="1" stop-color="rgb(55.82428%, 35.328674%, 46.64917%)" offset="0.539062"/><stop stop-opacity="1" stop-color="rgb(55.459595%, 35.620117%, 47.033691%)" offset="0.542969"/><stop stop-opacity="1" stop-color="rgb(55.09491%, 35.91156%, 47.419739%)" offset="0.546875"/><stop stop-opacity="1" stop-color="rgb(54.730225%, 36.203003%, 47.80426%)" offset="0.550781"/><stop stop-opacity="1" stop-color="rgb(54.36554%, 36.494446%, 48.188782%)" offset="0.554688"/><stop stop-opacity="1" stop-color="rgb(54.000854%, 36.785889%, 48.573303%)" offset="0.558594"/><stop stop-opacity="1" stop-color="rgb(53.637695%, 37.077332%, 48.957825%)" offset="0.5625"/><stop stop-opacity="1" stop-color="rgb(53.27301%, 37.368774%, 49.342346%)" offset="0.566406"/><stop stop-opacity="1" stop-color="rgb(52.908325%, 37.660217%, 49.726868%)" offset="0.570312"/><stop stop-opacity="1" stop-color="rgb(52.54364%, 37.95166%, 50.111389%)" offset="0.574219"/><stop stop-opacity="1" stop-color="rgb(52.180481%, 38.243103%, 50.497437%)" offset="0.578125"/><stop stop-opacity="1" stop-color="rgb(51.815796%, 38.534546%, 50.881958%)" offset="0.582031"/><stop stop-opacity="1" stop-color="rgb(51.451111%, 38.825989%, 51.266479%)" offset="0.585938"/><stop stop-opacity="1" stop-color="rgb(51.086426%, 39.117432%, 51.651001%)" offset="0.589844"/><stop stop-opacity="1" stop-color="rgb(50.723267%, 39.408875%, 52.035522%)" offset="0.59375"/><stop stop-opacity="1" stop-color="rgb(50.358582%, 39.700317%, 52.420044%)" offset="0.597656"/><stop stop-opacity="1" stop-color="rgb(49.993896%, 39.99176%, 52.806091%)" offset="0.601562"/><stop stop-opacity="1" stop-color="rgb(49.629211%, 40.283203%, 53.190613%)" offset="0.605469"/><stop stop-opacity="1" stop-color="rgb(49.266052%, 40.574646%, 53.575134%)" offset="0.609375"/><stop stop-opacity="1" stop-color="rgb(48.901367%, 40.866089%, 53.959656%)" offset="0.613281"/><stop stop-opacity="1" stop-color="rgb(48.536682%, 41.157532%, 54.344177%)" offset="0.617188"/><stop stop-opacity="1" stop-color="rgb(48.171997%, 41.447449%, 54.728699%)" offset="0.621094"/><stop stop-opacity="1" stop-color="rgb(47.808838%, 41.738892%, 55.11322%)" offset="0.625"/><stop stop-opacity="1" stop-color="rgb(47.444153%, 42.030334%, 55.497742%)" offset="0.628906"/><stop stop-opacity="1" stop-color="rgb(47.079468%, 42.321777%, 55.883789%)" offset="0.632812"/><stop stop-opacity="1" stop-color="rgb(46.714783%, 42.61322%, 56.268311%)" offset="0.636719"/><stop stop-opacity="1" stop-color="rgb(46.351624%, 42.904663%, 56.652832%)" offset="0.640625"/><stop stop-opacity="1" stop-color="rgb(45.986938%, 43.196106%, 57.037354%)" offset="0.644531"/><stop stop-opacity="1" stop-color="rgb(45.622253%, 43.487549%, 57.421875%)" offset="0.648438"/><stop stop-opacity="1" stop-color="rgb(45.257568%, 43.778992%, 57.806396%)" offset="0.652344"/><stop stop-opacity="1" stop-color="rgb(44.892883%, 44.070435%, 58.192444%)" offset="0.65625"/><stop stop-opacity="1" stop-color="rgb(44.528198%, 44.361877%, 58.576965%)" offset="0.660156"/><stop stop-opacity="1" stop-color="rgb(44.165039%, 44.65332%, 58.961487%)" offset="0.664062"/><stop stop-opacity="1" stop-color="rgb(43.800354%, 44.944763%, 59.346008%)" offset="0.667969"/><stop stop-opacity="1" stop-color="rgb(43.435669%, 45.236206%, 59.73053%)" offset="0.671875"/><stop stop-opacity="1" stop-color="rgb(43.070984%, 45.527649%, 60.115051%)" offset="0.675781"/><stop stop-opacity="1" stop-color="rgb(42.707825%, 45.819092%, 60.501099%)" offset="0.679688"/><stop stop-opacity="1" stop-color="rgb(42.34314%, 46.110535%, 60.88562%)" offset="0.683594"/><stop stop-opacity="1" stop-color="rgb(41.978455%, 46.401978%, 61.270142%)" offset="0.6875"/><stop stop-opacity="1" stop-color="rgb(41.61377%, 46.69342%, 61.654663%)" offset="0.691406"/><stop stop-opacity="1" stop-color="rgb(41.25061%, 46.984863%, 62.039185%)" offset="0.695312"/><stop stop-opacity="1" stop-color="rgb(40.885925%, 47.276306%, 62.423706%)" offset="0.699219"/><stop stop-opacity="1" stop-color="rgb(40.52124%, 47.567749%, 62.808228%)" offset="0.703125"/><stop stop-opacity="1" stop-color="rgb(40.156555%, 47.859192%, 63.192749%)" offset="0.707031"/><stop stop-opacity="1" stop-color="rgb(39.793396%, 48.150635%, 63.578796%)" offset="0.710938"/><stop stop-opacity="1" stop-color="rgb(39.428711%, 48.442078%, 63.963318%)" offset="0.714844"/><stop stop-opacity="1" stop-color="rgb(39.064026%, 48.733521%, 64.347839%)" offset="0.71875"/><stop stop-opacity="1" stop-color="rgb(38.699341%, 49.023438%, 64.732361%)" offset="0.722656"/><stop stop-opacity="1" stop-color="rgb(38.336182%, 49.31488%, 65.116882%)" offset="0.726562"/><stop stop-opacity="1" stop-color="rgb(37.971497%, 49.606323%, 65.501404%)" offset="0.730469"/><stop stop-opacity="1" stop-color="rgb(37.606812%, 49.897766%, 65.887451%)" offset="0.734375"/><stop stop-opacity="1" stop-color="rgb(37.242126%, 50.189209%, 66.271973%)" offset="0.738281"/><stop stop-opacity="1" stop-color="rgb(36.877441%, 50.480652%, 66.656494%)" offset="0.742188"/><stop stop-opacity="1" stop-color="rgb(36.512756%, 50.772095%, 67.041016%)" offset="0.746094"/><stop stop-opacity="1" stop-color="rgb(36.149597%, 51.063538%, 67.425537%)" offset="0.75"/><stop stop-opacity="1" stop-color="rgb(35.784912%, 51.35498%, 67.810059%)" offset="0.753906"/><stop stop-opacity="1" stop-color="rgb(35.420227%, 51.646423%, 68.19458%)" offset="0.757812"/><stop stop-opacity="1" stop-color="rgb(35.055542%, 51.937866%, 68.579102%)" offset="0.761719"/><stop stop-opacity="1" stop-color="rgb(34.692383%, 52.229309%, 68.965149%)" offset="0.765625"/><stop stop-opacity="1" stop-color="rgb(34.327698%, 52.520752%, 69.34967%)" offset="0.769531"/><stop stop-opacity="1" stop-color="rgb(33.963013%, 52.812195%, 69.734192%)" offset="0.773438"/><stop stop-opacity="1" stop-color="rgb(33.598328%, 53.103638%, 70.118713%)" offset="0.777344"/><stop stop-opacity="1" stop-color="rgb(33.235168%, 53.395081%, 70.503235%)" offset="0.78125"/><stop stop-opacity="1" stop-color="rgb(32.870483%, 53.686523%, 70.887756%)" offset="0.785156"/><stop stop-opacity="1" stop-color="rgb(32.505798%, 53.977966%, 71.273804%)" offset="0.789062"/><stop stop-opacity="1" stop-color="rgb(32.141113%, 54.269409%, 71.658325%)" offset="0.792969"/><stop stop-opacity="1" stop-color="rgb(31.777954%, 54.560852%, 72.042847%)" offset="0.796875"/><stop stop-opacity="1" stop-color="rgb(31.413269%, 54.852295%, 72.427368%)" offset="0.800781"/><stop stop-opacity="1" stop-color="rgb(31.048584%, 55.143738%, 72.81189%)" offset="0.804688"/><stop stop-opacity="1" stop-color="rgb(30.683899%, 55.435181%, 73.196411%)" offset="0.808594"/><stop stop-opacity="1" stop-color="rgb(30.32074%, 55.726624%, 73.582458%)" offset="0.8125"/><stop stop-opacity="1" stop-color="rgb(29.956055%, 56.016541%, 73.96698%)" offset="0.816406"/><stop stop-opacity="1" stop-color="rgb(29.59137%, 56.307983%, 74.351501%)" offset="0.820312"/><stop stop-opacity="1" stop-color="rgb(29.226685%, 56.599426%, 74.736023%)" offset="0.824219"/><stop stop-opacity="1" stop-color="rgb(28.862%, 56.890869%, 75.120544%)" offset="0.828125"/><stop stop-opacity="1" stop-color="rgb(28.497314%, 57.182312%, 75.505066%)" offset="0.832031"/><stop stop-opacity="1" stop-color="rgb(28.134155%, 57.473755%, 75.889587%)" offset="0.835938"/><stop stop-opacity="1" stop-color="rgb(27.76947%, 57.765198%, 76.274109%)" offset="0.839844"/><stop stop-opacity="1" stop-color="rgb(27.404785%, 58.056641%, 76.660156%)" offset="0.84375"/><stop stop-opacity="1" stop-color="rgb(27.0401%, 58.348083%, 77.044678%)" offset="0.847656"/><stop stop-opacity="1" stop-color="rgb(26.676941%, 58.639526%, 77.429199%)" offset="0.851562"/><stop stop-opacity="1" stop-color="rgb(26.312256%, 58.930969%, 77.813721%)" offset="0.855469"/><stop stop-opacity="1" stop-color="rgb(25.947571%, 59.222412%, 78.198242%)" offset="0.859375"/><stop stop-opacity="1" stop-color="rgb(25.582886%, 59.513855%, 78.582764%)" offset="0.863281"/><stop stop-opacity="1" stop-color="rgb(25.219727%, 59.805298%, 78.968811%)" offset="0.867188"/><stop stop-opacity="1" stop-color="rgb(24.855042%, 60.096741%, 79.353333%)" offset="0.871094"/><stop stop-opacity="1" stop-color="rgb(24.490356%, 60.388184%, 79.737854%)" offset="0.875"/><stop stop-opacity="1" stop-color="rgb(24.125671%, 60.679626%, 80.122375%)" offset="0.878906"/><stop stop-opacity="1" stop-color="rgb(23.762512%, 60.971069%, 80.506897%)" offset="0.882812"/><stop stop-opacity="1" stop-color="rgb(23.397827%, 61.262512%, 80.891418%)" offset="0.886719"/><stop stop-opacity="1" stop-color="rgb(23.033142%, 61.553955%, 81.27594%)" offset="0.890625"/><stop stop-opacity="1" stop-color="rgb(22.668457%, 61.845398%, 81.660461%)" offset="0.894531"/><stop stop-opacity="1" stop-color="rgb(22.305298%, 62.136841%, 82.046509%)" offset="0.898438"/><stop stop-opacity="1" stop-color="rgb(21.940613%, 62.428284%, 82.43103%)" offset="0.902344"/><stop stop-opacity="1" stop-color="rgb(21.575928%, 62.719727%, 82.815552%)" offset="0.90625"/><stop stop-opacity="1" stop-color="rgb(21.211243%, 63.011169%, 83.200073%)" offset="0.910156"/><stop stop-opacity="1" stop-color="rgb(20.848083%, 63.302612%, 83.584595%)" offset="0.914062"/><stop stop-opacity="1" stop-color="rgb(20.483398%, 63.592529%, 83.969116%)" offset="0.917969"/><stop stop-opacity="1" stop-color="rgb(20.118713%, 63.883972%, 84.355164%)" offset="0.921875"/><stop stop-opacity="1" stop-color="rgb(19.754028%, 64.175415%, 84.739685%)" offset="0.925781"/><stop stop-opacity="1" stop-color="rgb(19.389343%, 64.466858%, 85.124207%)" offset="0.929688"/><stop stop-opacity="1" stop-color="rgb(19.024658%, 64.758301%, 85.508728%)" offset="0.933594"/><stop stop-opacity="1" stop-color="rgb(18.661499%, 65.049744%, 85.89325%)" offset="0.9375"/><stop stop-opacity="1" stop-color="rgb(18.296814%, 65.341187%, 86.277771%)" offset="0.941406"/><stop stop-opacity="1" stop-color="rgb(17.932129%, 65.632629%, 86.663818%)" offset="0.945312"/><stop stop-opacity="1" stop-color="rgb(17.567444%, 65.924072%, 87.04834%)" offset="0.949219"/><stop stop-opacity="1" stop-color="rgb(17.204285%, 66.215515%, 87.432861%)" offset="0.953125"/><stop stop-opacity="1" stop-color="rgb(16.8396%, 66.506958%, 87.817383%)" offset="0.957031"/><stop stop-opacity="1" stop-color="rgb(16.474915%, 66.798401%, 88.201904%)" offset="0.960938"/><stop stop-opacity="1" stop-color="rgb(16.287231%, 66.947937%, 88.400269%)" offset="0.964844"/><stop stop-opacity="1" stop-color="rgb(16.099548%, 67.098999%, 88.598633%)" offset="0.96875"/><stop stop-opacity="1" stop-color="rgb(16.099548%, 67.098999%, 88.598633%)" offset="1"/></linearGradient></defs><g clip-path="url(#7844d671d9)"><g clip-path="url(#6eb6e5250a)"><path fill="url(#77187cc4d2)" d="M 296.601562 2.769531 L 296.601562 222.460938 L 78.449219 222.460938 L 78.449219 2.769531 Z M 296.601562 2.769531 " fill-rule="nonzero"/></g></g><g fill="#ffffff" fill-opacity="1"><g transform="translate(72.590689, 122.627935)"><g><path d="M 21.203125 0 L 21.171875 -12.375 L 15.109375 -2.171875 L 12.953125 -2.171875 L 6.921875 -12.109375 L 6.921875 0 L 2.4375 0 L 2.4375 -20.609375 L 6.390625 -20.609375 L 14.109375 -7.8125 L 21.703125 -20.609375 L 25.625 -20.609375 L 25.6875 0 Z M 21.203125 0 "/></g></g></g><g fill="#ffffff" fill-opacity="1"><g transform="translate(106.607006, 122.627935)"><g><path d="M 8.515625 -16.078125 C 10.960938 -16.078125 12.84375 -15.492188 14.15625 -14.328125 C 15.476562 -13.160156 16.140625 -11.398438 16.140625 -9.046875 L 16.140625 0 L 11.84375 0 L 11.84375 -1.96875 C 10.976562 -0.5 9.367188 0.234375 7.015625 0.234375 C 5.796875 0.234375 4.738281 0.03125 3.84375 -0.375 C 2.945312 -0.789062 2.265625 -1.363281 1.796875 -2.09375 C 1.328125 -2.820312 1.09375 -3.644531 1.09375 -4.5625 C 1.09375 -6.039062 1.644531 -7.203125 2.75 -8.046875 C 3.863281 -8.890625 5.578125 -9.3125 7.890625 -9.3125 L 11.546875 -9.3125 C 11.546875 -10.3125 11.238281 -11.078125 10.625 -11.609375 C 10.019531 -12.148438 9.109375 -12.421875 7.890625 -12.421875 C 7.046875 -12.421875 6.21875 -12.289062 5.40625 -12.03125 C 4.59375 -11.769531 3.898438 -11.410156 3.328125 -10.953125 L 1.671875 -14.171875 C 2.535156 -14.773438 3.570312 -15.242188 4.78125 -15.578125 C 5.988281 -15.910156 7.234375 -16.078125 8.515625 -16.078125 Z M 8.15625 -2.859375 C 8.945312 -2.859375 9.644531 -3.039062 10.25 -3.40625 C 10.851562 -3.769531 11.285156 -4.300781 11.546875 -5 L 11.546875 -6.625 L 8.390625 -6.625 C 6.503906 -6.625 5.5625 -6.003906 5.5625 -4.765625 C 5.5625 -4.179688 5.789062 -3.71875 6.25 -3.375 C 6.71875 -3.03125 7.351562 -2.859375 8.15625 -2.859375 Z M 8.15625 -2.859375 "/></g></g></g><g fill="#ffffff" fill-opacity="1"><g transform="translate(130.669493, 122.627935)"><g><path d="M 6.515625 -13.75 C 7.054688 -14.519531 7.789062 -15.097656 8.71875 -15.484375 C 9.65625 -15.878906 10.734375 -16.078125 11.953125 -16.078125 L 11.953125 -11.84375 C 11.441406 -11.882812 11.097656 -11.90625 10.921875 -11.90625 C 9.609375 -11.90625 8.578125 -11.535156 7.828125 -10.796875 C 7.085938 -10.054688 6.71875 -8.953125 6.71875 -7.484375 L 6.71875 0 L 2.125 0 L 2.125 -15.84375 L 6.515625 -15.84375 Z M 6.515625 -13.75 "/></g></g></g><g fill="#ffffff" fill-opacity="1"><g transform="translate(149.254428, 122.627935)"><g><path d="M 9.78125 0.234375 C 8.09375 0.234375 6.570312 -0.113281 5.21875 -0.8125 C 3.875 -1.507812 2.820312 -2.472656 2.0625 -3.703125 C 1.3125 -4.941406 0.9375 -6.347656 0.9375 -7.921875 C 0.9375 -9.492188 1.3125 -10.894531 2.0625 -12.125 C 2.820312 -13.363281 3.875 -14.332031 5.21875 -15.03125 C 6.570312 -15.726562 8.09375 -16.078125 9.78125 -16.078125 C 11.445312 -16.078125 12.898438 -15.726562 14.140625 -15.03125 C 15.390625 -14.332031 16.300781 -13.335938 16.875 -12.046875 L 13.3125 -10.125 C 12.488281 -11.582031 11.300781 -12.3125 9.75 -12.3125 C 8.550781 -12.3125 7.554688 -11.914062 6.765625 -11.125 C 5.984375 -10.34375 5.59375 -9.273438 5.59375 -7.921875 C 5.59375 -6.566406 5.984375 -5.492188 6.765625 -4.703125 C 7.554688 -3.921875 8.550781 -3.53125 9.75 -3.53125 C 11.320312 -3.53125 12.507812 -4.257812 13.3125 -5.71875 L 16.875 -3.765625 C 16.300781 -2.515625 15.390625 -1.535156 14.140625 -0.828125 C 12.898438 -0.117188 11.445312 0.234375 9.78125 0.234375 Z M 9.78125 0.234375 "/></g></g></g><g fill="#ffffff" fill-opacity="1"><g transform="translate(172.551233, 122.627935)"><g/></g></g><g fill="#ffffff" fill-opacity="1"><g transform="translate(186.777669, 122.627935)"><g><path d="M 21.203125 0 L 21.171875 -12.375 L 15.109375 -2.171875 L 12.953125 -2.171875 L 6.921875 -12.109375 L 6.921875 0 L 2.4375 0 L 2.4375 -20.609375 L 6.390625 -20.609375 L 14.109375 -7.8125 L 21.703125 -20.609375 L 25.625 -20.609375 L 25.6875 0 Z M 21.203125 0 "/></g></g></g><g fill="#ffffff" fill-opacity="1"><g transform="translate(220.793983, 122.627935)"><g><path d="M 8.515625 -16.078125 C 10.960938 -16.078125 12.84375 -15.492188 14.15625 -14.328125 C 15.476562 -13.160156 16.140625 -11.398438 16.140625 -9.046875 L 16.140625 0 L 11.84375 0 L 11.84375 -1.96875 C 10.976562 -0.5 9.367188 0.234375 7.015625 0.234375 C 5.796875 0.234375 4.738281 0.03125 3.84375 -0.375 C 2.945312 -0.789062 2.265625 -1.363281 1.796875 -2.09375 C 1.328125 -2.820312 1.09375 -3.644531 1.09375 -4.5625 C 1.09375 -6.039062 1.644531 -7.203125 2.75 -8.046875 C 3.863281 -8.890625 5.578125 -9.3125 7.890625 -9.3125 L 11.546875 -9.3125 C 11.546875 -10.3125 11.238281 -11.078125 10.625 -11.609375 C 10.019531 -12.148438 9.109375 -12.421875 7.890625 -12.421875 C 7.046875 -12.421875 6.21875 -12.289062 5.40625 -12.03125 C 4.59375 -11.769531 3.898438 -11.410156 3.328125 -10.953125 L 1.671875 -14.171875 C 2.535156 -14.773438 3.570312 -15.242188 4.78125 -15.578125 C 5.988281 -15.910156 7.234375 -16.078125 8.515625 -16.078125 Z M 8.15625 -2.859375 C 8.945312 -2.859375 9.644531 -3.039062 10.25 -3.40625 C 10.851562 -3.769531 11.285156 -4.300781 11.546875 -5 L 11.546875 -6.625 L 8.390625 -6.625 C 6.503906 -6.625 5.5625 -6.003906 5.5625 -4.765625 C 5.5625 -4.179688 5.789062 -3.71875 6.25 -3.375 C 6.71875 -3.03125 7.351562 -2.859375 8.15625 -2.859375 Z M 8.15625 -2.859375 "/></g></g></g><g fill="#ffffff" fill-opacity="1"><g transform="translate(244.856467, 122.627935)"><g><path d="M 17.84375 -15.84375 L 10.6875 0.96875 C 9.96875 2.800781 9.070312 4.085938 8 4.828125 C 6.925781 5.578125 5.632812 5.953125 4.125 5.953125 C 3.300781 5.953125 2.484375 5.820312 1.671875 5.5625 C 0.867188 5.3125 0.210938 4.957031 -0.296875 4.5 L 1.390625 1.234375 C 1.742188 1.546875 2.148438 1.789062 2.609375 1.96875 C 3.066406 2.144531 3.519531 2.234375 3.96875 2.234375 C 4.601562 2.234375 5.113281 2.082031 5.5 1.78125 C 5.894531 1.476562 6.25 0.972656 6.5625 0.265625 L 6.625 0.125 L -0.234375 -15.84375 L 4.5 -15.84375 L 8.953125 -5.09375 L 13.4375 -15.84375 Z M 17.84375 -15.84375 "/></g></g></g><g fill="#ffffff" fill-opacity="1"><g transform="translate(268.359426, 122.627935)"><g><path d="M 9.65625 0.234375 C 7.988281 0.234375 6.492188 -0.113281 5.171875 -0.8125 C 3.847656 -1.507812 2.8125 -2.472656 2.0625 -3.703125 C 1.3125 -4.941406 0.9375 -6.347656 0.9375 -7.921875 C 0.9375 -9.492188 1.3125 -10.894531 2.0625 -12.125 C 2.8125 -13.363281 3.847656 -14.332031 5.171875 -15.03125 C 6.492188 -15.726562 7.988281 -16.078125 9.65625 -16.078125 C 11.332031 -16.078125 12.828125 -15.726562 14.140625 -15.03125 C 15.453125 -14.332031 16.476562 -13.363281 17.21875 -12.125 C 17.96875 -10.894531 18.34375 -9.492188 18.34375 -7.921875 C 18.34375 -6.347656 17.96875 -4.941406 17.21875 -3.703125 C 16.476562 -2.472656 15.453125 -1.507812 14.140625 -0.8125 C 12.828125 -0.113281 11.332031 0.234375 9.65625 0.234375 Z M 9.65625 -3.53125 C 10.832031 -3.53125 11.800781 -3.925781 12.5625 -4.71875 C 13.320312 -5.519531 13.703125 -6.585938 13.703125 -7.921875 C 13.703125 -9.253906 13.320312 -10.316406 12.5625 -11.109375 C 11.800781 -11.910156 10.832031 -12.3125 9.65625 -12.3125 C 8.476562 -12.3125 7.503906 -11.910156 6.734375 -11.109375 C 5.972656 -10.316406 5.59375 -9.253906 5.59375 -7.921875 C 5.59375 -6.585938 5.972656 -5.519531 6.734375 -4.71875 C 7.503906 -3.925781 8.476562 -3.53125 9.65625 -3.53125 Z M 9.65625 -3.53125 "/></g></g></g><g fill="#ffffff" fill-opacity="1"><g transform="translate(293.540981, 122.627935)"><g><path d="M 2.125 -21.859375 L 6.71875 -21.859375 L 6.71875 0 L 2.125 0 Z M 2.125 -21.859375 "/></g></g></g></svg>