<svg xmlns="http://www.w3.org/2000/svg" xmlns:xlink="http://www.w3.org/1999/xlink" width="500" zoomAndPan="magnify" viewBox="0 0 375 374.999991" height="500" preserveAspectRatio="xMidYMid meet" version="1.0"><defs><g/><clipPath id="621f7e1f97"><path d="M 78.386719 77.769531 L 296.601562 77.769531 L 296.601562 297.519531 L 78.386719 297.519531 Z M 78.386719 77.769531 " clip-rule="nonzero"/></clipPath><clipPath id="10a1bdf8ba"><path d="M 78.78125 181.992188 C 79.199219 178.261719 78.945312 174.476562 79.304688 170.722656 C 79.441406 169.238281 79.695312 167.769531 80.070312 166.328125 C 81.128906 162.351562 83.214844 158.988281 86.210938 156.171875 C 86.699219 155.707031 87.292969 155.367188 87.941406 155.183594 C 88.550781 155 89.191406 154.75 89.679688 154.359375 C 90.410156 153.773438 91.121094 153.109375 90.738281 151.953125 C 90.660156 151.714844 90.863281 151.277344 91.078125 151.0625 C 91.464844 150.667969 91.910156 150.332031 92.394531 150.074219 C 94.746094 148.847656 97.105469 147.644531 99.484375 146.484375 C 99.941406 146.261719 100.449219 146.160156 100.957031 146.199219 C 101.824219 146.289062 102.660156 146.589844 103.523438 146.714844 C 104.132812 146.800781 104.753906 146.804688 105.367188 146.71875 C 106.164062 146.605469 106.953125 146.191406 107.734375 146.21875 C 108.773438 146.265625 109.800781 146.46875 110.78125 146.820312 C 113.625 147.808594 116.128906 149.582031 118.003906 151.941406 C 118.191406 152.199219 118.265625 152.523438 118.214844 152.839844 C 118.082031 153.492188 118.113281 154.09375 118.417969 154.683594 C 118.699219 155.230469 118.933594 155.808594 119.253906 156.332031 C 120.816406 158.871094 121.621094 161.617188 121.769531 164.601562 C 121.902344 167.253906 121.988281 169.890625 121.21875 172.46875 C 120.867188 173.652344 120.53125 174.867188 119.367188 175.609375 C 119.117188 175.769531 118.949219 176.175781 118.902344 176.492188 C 118.800781 177.140625 118.816406 177.804688 118.769531 178.460938 C 118.75 178.992188 118.699219 179.523438 118.609375 180.046875 C 118.566406 180.277344 118.335938 180.472656 118.191406 180.683594 C 118.007812 180.546875 117.796875 180.433594 117.652344 180.269531 C 117.265625 179.8125 116.851562 179.828125 116.613281 180.378906 C 116.464844 180.738281 116.359375 181.113281 116.292969 181.492188 C 116.082031 182.546875 115.839844 183.621094 115.066406 184.386719 C 114.078125 185.367188 113.855469 186.519531 113.953125 187.820312 C 114.078125 189.507812 113.578125 191.097656 113.125 192.691406 C 113.054688 192.933594 112.863281 193.140625 112.664062 193.472656 C 112.539062 193.214844 112.46875 193.128906 112.46875 193.042969 C 112.457031 192.214844 112.46875 191.390625 112.453125 190.566406 C 112.453125 190.328125 112.441406 190.042969 112.316406 189.863281 C 112.246094 189.765625 112.152344 189.683594 112.046875 189.621094 C 111.941406 189.558594 111.820312 189.523438 111.699219 189.511719 C 111.539062 189.511719 111.3125 189.773438 111.242188 189.96875 C 111.132812 190.257812 111.09375 190.566406 111.128906 190.875 C 111.257812 191.800781 111.144531 192.6875 111.003906 193.609375 C 110.800781 195.003906 110.789062 196.433594 110.734375 197.847656 C 110.660156 199.726562 110.027344 201.382812 108.914062 202.886719 C 108.714844 203.15625 108.523438 203.59375 108.605469 203.878906 C 108.8125 204.5625 109.101562 205.214844 109.472656 205.824219 C 109.847656 206.457031 109.882812 206.605469 109.273438 207.023438 C 108.742188 207.394531 108.503906 207.835938 108.710938 208.492188 C 109.023438 209.480469 109.226562 210.507812 109.601562 211.46875 C 110.78125 214.488281 112.019531 217.480469 113.238281 220.484375 C 113.382812 220.835938 113.582031 221.175781 113.691406 221.539062 C 113.707031 221.625 113.699219 221.714844 113.667969 221.800781 C 113.640625 221.882812 113.59375 221.960938 113.527344 222.019531 C 112.910156 222.390625 112.808594 222.582031 113.0625 223.265625 C 113.269531 223.820312 113.476562 224.378906 113.722656 224.910156 C 114.027344 225.574219 114.433594 226.160156 115.171875 226.421875 C 115.605469 226.574219 115.753906 226.886719 115.683594 227.339844 C 115.609375 227.816406 115.804688 228.183594 116.207031 228.4375 C 116.691406 228.742188 117.167969 229.0625 117.671875 229.328125 C 117.882812 229.441406 118.308594 229.542969 118.371094 229.453125 C 118.53125 229.238281 118.65625 228.871094 118.582031 228.632812 C 118.136719 227.167969 117.765625 225.652344 117.101562 224.285156 C 116.273438 222.53125 115.617188 220.703125 115.132812 218.824219 C 115.011719 218.359375 115.113281 217.832031 115.113281 217.339844 L 115.351562 217.308594 C 115.476562 217.550781 115.582031 217.800781 115.671875 218.058594 C 116.164062 219.914062 116.613281 221.769531 117.140625 223.613281 C 117.316406 224.234375 117.632812 224.820312 117.949219 225.382812 C 118.167969 225.777344 118.566406 225.878906 118.949219 225.582031 C 119.363281 225.265625 119.59375 225.449219 119.730469 225.839844 C 119.820312 226.089844 119.820312 226.359375 119.875 226.617188 C 119.96875 227.074219 119.996094 227.566406 120.203125 227.96875 C 120.308594 228.183594 120.738281 228.332031 121.011719 228.320312 C 121.179688 228.3125 121.4375 227.949219 121.46875 227.730469 C 121.519531 227.316406 121.527344 226.851562 121.386719 226.464844 C 120.695312 224.53125 120.046875 222.570312 119.199219 220.703125 C 117.628906 217.238281 117.246094 213.65625 117.933594 209.96875 C 118.273438 208.136719 118.875 206.351562 119.363281 204.542969 C 119.476562 204.132812 119.609375 203.726562 119.742188 203.316406 L 119.914062 203.328125 C 119.980469 203.488281 120.09375 203.644531 120.109375 203.8125 C 120.210938 205.035156 120.300781 206.257812 120.378906 207.480469 C 120.546875 210.164062 120.589844 212.863281 120.90625 215.53125 C 121.089844 217.085938 121.683594 218.59375 122.152344 220.109375 C 122.226562 220.34375 122.613281 220.484375 122.851562 220.671875 C 123.011719 220.429688 123.285156 220.203125 123.304688 219.953125 C 123.347656 219.28125 123.683594 218.789062 124.109375 218.34375 C 124.601562 217.816406 124.71875 217.265625 124.410156 216.597656 C 124.246094 216.195312 124.105469 215.785156 123.988281 215.371094 L 124.140625 215.308594 C 124.199219 215.382812 124.285156 215.453125 124.308594 215.539062 C 124.605469 216.664062 124.960938 217.785156 125.164062 218.929688 C 125.324219 219.828125 125.429688 220.042969 126.351562 220.167969 C 126.449219 220.1875 126.542969 220.21875 126.632812 220.257812 C 126.632812 220.6875 126.542969 221.117188 126.648438 221.488281 C 127.195312 223.445312 127.730469 225.410156 128.386719 227.332031 C 129.5625 230.78125 131.375 233.90625 133.523438 236.828125 C 134.308594 237.894531 135.28125 238.820312 136.195312 239.78125 C 137.585938 241.242188 138.964844 242.714844 140.421875 244.105469 C 141.292969 244.9375 142.296875 245.632812 143.261719 246.355469 C 143.492188 246.53125 143.8125 246.585938 144.089844 246.695312 C 144.128906 246.636719 144.167969 246.578125 144.207031 246.519531 C 144.058594 246.257812 143.957031 245.945312 143.753906 245.746094 C 142.710938 244.730469 141.648438 243.730469 140.574219 242.746094 C 139.460938 241.742188 138.324219 240.769531 137.203125 239.777344 C 136.898438 239.507812 136.820312 239.230469 137.136719 238.878906 C 137.261719 238.742188 137.253906 238.460938 137.234375 238.257812 C 137.195312 237.992188 137.136719 237.726562 137.058594 237.46875 L 137.222656 237.355469 C 137.445312 237.539062 137.695312 237.699219 137.878906 237.917969 C 138.980469 239.21875 140.097656 240.503906 141.144531 241.851562 C 142.609375 243.734375 144.347656 245.34375 146.210938 246.789062 C 148.601562 248.644531 151.132812 250.316406 153.578125 252.097656 C 154.730469 252.9375 155.96875 253.730469 156.273438 255.292969 C 156.300781 255.503906 156.308594 255.714844 156.300781 255.925781 C 156.109375 255.925781 155.914062 255.910156 155.722656 255.871094 C 155.320312 255.761719 154.90625 255.691406 154.734375 256.171875 C 154.308594 257.375 155.28125 258.4375 156.589844 258.164062 C 156.5 258.054688 156.421875 257.9375 156.359375 257.808594 C 156.28125 257.582031 156.238281 257.347656 156.179688 257.113281 C 156.378906 257.167969 156.59375 257.183594 156.769531 257.277344 C 158.949219 258.449219 161.09375 259.683594 163.304688 260.792969 C 164.667969 261.476562 166.121094 261.976562 167.535156 262.539062 C 167.863281 262.667969 168.136719 262.644531 168.15625 262.15625 C 168.175781 261.574219 168.316406 261.507812 168.828125 261.773438 C 169.035156 261.863281 169.226562 261.988281 169.390625 262.144531 C 169.835938 262.648438 170.253906 263.171875 170.675781 263.695312 C 171.128906 264.269531 171.410156 264.300781 171.894531 263.773438 C 172.148438 263.5 172.390625 263.402344 172.757812 263.574219 C 173.191406 263.800781 173.648438 263.980469 174.121094 264.109375 C 174.40625 264.179688 174.886719 264.1875 175.015625 264.015625 C 175.5625 263.304688 176.101562 263.566406 176.679688 263.894531 C 176.984375 264.0625 177.285156 264.238281 177.605469 264.375 C 178.910156 264.945312 180.234375 265.425781 181.695312 265.089844 C 182.289062 264.953125 182.386719 264.707031 182.140625 264.160156 C 182.019531 263.886719 181.929688 263.59375 181.769531 263.160156 C 182.179688 263.246094 182.394531 263.273438 182.605469 263.332031 C 184.394531 263.847656 186.21875 263.738281 188.042969 263.644531 C 190.089844 263.542969 192.121094 263.492188 194.066406 264.398438 C 194.847656 264.761719 195.722656 264.941406 196.570312 265.140625 C 197.1875 265.285156 197.617188 265.015625 197.71875 264.53125 C 197.859375 263.894531 198.019531 263.828125 198.601562 264.160156 C 198.761719 264.25 198.914062 264.347656 199.074219 264.4375 C 199.828125 264.851562 200.027344 264.832031 200.625 264.214844 C 200.894531 263.933594 201.148438 263.914062 201.496094 264.074219 C 203.15625 264.832031 204.671875 264.558594 206.042969 263.378906 C 206.382812 263.085938 206.753906 262.894531 207.210938 263.148438 C 208.585938 263.914062 209.976562 263.503906 211.378906 263.21875 C 212.070312 263.078125 212.773438 263.007812 213.480469 263.011719 C 213.703125 263.011719 214.097656 263.328125 214.113281 263.527344 C 214.136719 263.777344 213.910156 264.222656 213.699219 264.292969 C 212.738281 264.609375 211.746094 264.816406 210.769531 265.070312 C 210.570312 265.125 210.378906 265.210938 210.1875 265.28125 C 210.203125 265.351562 210.214844 265.421875 210.230469 265.492188 C 210.417969 265.53125 210.605469 265.554688 210.796875 265.570312 C 211.40625 265.59375 212.011719 265.605469 212.617188 265.625 C 212.886719 265.632812 213.152344 265.660156 213.417969 265.664062 C 214.277344 265.683594 215.140625 265.644531 215.992188 265.726562 C 216.371094 265.761719 216.734375 266.035156 217.09375 266.203125 C 217.070312 266.28125 217.046875 266.355469 217.023438 266.433594 C 216.585938 266.394531 216.144531 266.296875 215.71875 266.339844 C 215.390625 266.371094 215.085938 266.515625 214.855469 266.75 C 214.773438 266.839844 215.042969 267.242188 215.15625 267.511719 C 215.230469 267.6875 215.394531 267.898438 215.347656 268.035156 C 215.300781 268.171875 215.042969 268.269531 214.863281 268.292969 C 213.566406 268.460938 212.261719 268.570312 210.96875 268.761719 C 209.378906 268.996094 207.792969 269.261719 206.214844 269.558594 C 205.644531 269.664062 205 269.726562 204.640625 270.425781 C 205.519531 270.726562 206.359375 270.765625 207.226562 270.734375 C 208.40625 270.6875 209.519531 270.296875 210.734375 270.308594 C 212.5 270.324219 214.28125 270.035156 216.03125 269.738281 C 217.890625 269.425781 219.71875 268.921875 221.570312 268.558594 C 223.339844 268.222656 225.019531 267.539062 226.523438 266.546875 C 229.191406 264.777344 232.121094 263.539062 235.03125 262.285156 C 237.902344 261.046875 240.832031 259.949219 243.410156 258.148438 C 244.382812 257.472656 245.289062 256.703125 246.195312 255.9375 C 246.386719 255.777344 246.539062 255.574219 246.636719 255.347656 C 246.734375 255.117188 246.777344 254.867188 246.757812 254.617188 C 246.625 254.621094 246.492188 254.640625 246.363281 254.667969 C 245.664062 254.886719 244.972656 255.125 244.269531 255.328125 C 244.125 255.371094 243.941406 255.300781 243.777344 255.28125 C 243.800781 255.113281 243.847656 254.949219 243.914062 254.792969 C 244.078125 254.546875 244.257812 254.308594 244.453125 254.082031 C 244.191406 254.019531 244.082031 254 243.964844 253.957031 C 243.78125 253.902344 243.605469 253.835938 243.425781 253.769531 C 243.515625 253.554688 243.546875 253.273438 243.707031 253.152344 C 244.003906 252.902344 244.386719 252.78125 244.707031 252.5625 C 245.347656 252.128906 246.007812 251.710938 246.574219 251.191406 C 246.78125 251 246.742188 250.539062 246.820312 250.199219 C 246.488281 250.261719 246.085938 250.222656 245.832031 250.398438 C 245.089844 250.914062 244.425781 251.53125 243.707031 252.074219 C 242.421875 253.054688 241.164062 254.074219 239.808594 254.949219 C 238.964844 255.511719 238.027344 255.917969 237.042969 256.152344 C 236.261719 256.324219 235.566406 256.449219 234.960938 257.03125 C 233.792969 258.152344 232.25 258.414062 230.730469 258.734375 C 230.851562 258.554688 231.015625 258.40625 231.207031 258.304688 C 233.0625 257.261719 234.914062 256.238281 236.761719 255.183594 C 238.183594 254.367188 239.351562 253.234375 240.445312 252.035156 C 240.59375 251.871094 240.699219 251.507812 240.617188 251.339844 C 240.535156 251.171875 240.148438 250.984375 239.96875 251.039062 C 239.214844 251.265625 238.648438 250.835938 238.058594 250.554688 C 237.546875 250.308594 237.527344 249.96875 237.921875 249.515625 C 238.316406 249.0625 238.757812 248.605469 239.160156 248.140625 C 239.929688 247.253906 240.730469 246.4375 241.949219 246.144531 C 242.339844 246.050781 242.679688 245.707031 243.011719 245.433594 C 243.191406 245.28125 243.292969 245.03125 243.445312 244.839844 C 244.371094 243.671875 245.695312 243.019531 246.855469 242.148438 C 247.527344 241.640625 248.082031 240.972656 248.648438 240.332031 C 248.785156 240.175781 248.75 239.859375 248.792969 239.613281 C 248.535156 239.664062 248.234375 239.644531 248.03125 239.777344 C 247.078125 240.410156 246.183594 241.140625 245.214844 241.738281 C 243.363281 242.886719 241.5 244.042969 239.578125 245.078125 C 237.277344 246.316406 234.917969 247.429688 232.574219 248.582031 C 229.40625 250.132812 226.226562 251.660156 223.066406 253.226562 C 222.738281 253.390625 222.519531 253.78125 222.25 254.066406 L 223.03125 254.746094 C 222.3125 254.984375 221.601562 255.207031 220.902344 255.460938 C 216.960938 256.875 213.03125 258.324219 209.078125 259.699219 C 206.746094 260.496094 204.335938 261.03125 201.890625 261.289062 C 200.796875 261.414062 199.707031 261.601562 198.613281 261.734375 C 198.046875 261.800781 197.480469 261.835938 196.910156 261.835938 C 194.832031 261.828125 192.753906 261.757812 190.675781 261.792969 C 189.777344 261.808594 188.898438 261.933594 188.003906 261.65625 C 187.410156 261.46875 186.757812 261.453125 186.128906 261.371094 C 184.695312 261.1875 183.234375 261.097656 181.820312 260.8125 C 179.953125 260.429688 178.113281 259.929688 176.273438 259.421875 C 173.773438 258.734375 171.5 257.546875 169.367188 256.082031 C 169.222656 255.964844 169.085938 255.835938 168.953125 255.699219 C 169.105469 255.6875 169.253906 255.6875 169.402344 255.699219 C 170.453125 255.945312 171.492188 256.21875 172.546875 256.441406 C 173.523438 256.648438 174.515625 256.777344 175.488281 256.988281 C 176.558594 257.21875 177.605469 257.605469 178.683594 257.75 C 180.808594 258.042969 182.753906 258.851562 184.71875 259.625 C 185.269531 259.84375 185.722656 259.960938 186.222656 259.488281 C 186.609375 259.125 187.054688 259.09375 187.414062 259.640625 C 187.53125 259.820312 187.804688 259.941406 188.03125 259.988281 C 188.4375 260.058594 188.84375 260.101562 189.253906 260.113281 C 190.722656 260.203125 192.195312 260.277344 193.664062 260.378906 C 194.144531 260.410156 194.421875 260.277344 194.40625 259.742188 C 194.386719 259.277344 194.605469 259.085938 195.089844 259.125 C 195.585938 259.167969 196.078125 259.167969 196.574219 259.125 C 198.4375 258.976562 200.3125 259.417969 202.183594 258.792969 C 203.890625 258.226562 205.6875 257.917969 207.449219 257.5 C 208.273438 257.300781 209.09375 257.015625 209.933594 256.921875 C 211.292969 256.769531 212.671875 256.738281 214.039062 256.65625 C 214.457031 256.632812 214.765625 256.472656 214.773438 256.007812 C 214.785156 255.5 215.011719 255.484375 215.414062 255.648438 C 215.828125 255.808594 216.257812 255.933594 216.691406 256.019531 C 216.765625 256.035156 216.996094 255.726562 216.976562 255.703125 C 216.429688 254.996094 217.050781 254.804688 217.488281 254.582031 C 221.015625 252.792969 224.597656 251.097656 228.074219 249.214844 C 230.785156 247.75 233.386719 246.082031 236.007812 244.445312 C 237.523438 243.519531 238.992188 242.511719 240.398438 241.421875 C 242.425781 239.824219 244.449219 238.195312 246.304688 236.402344 C 248.382812 234.414062 250.34375 232.304688 252.179688 230.085938 C 254.828125 226.851562 256.925781 223.238281 258.835938 219.515625 C 260.832031 215.660156 262.40625 211.597656 263.53125 207.402344 C 264 205.65625 264.179688 203.835938 264.601562 202.078125 C 264.953125 200.585938 265.074219 199.046875 264.960938 197.519531 C 264.953125 197.394531 265.011719 197.28125 265.015625 197.15625 C 265.054688 196.261719 265.113281 195.367188 265.121094 194.472656 C 265.128906 193.191406 264.996094 191.902344 265.121094 190.636719 C 265.179688 189.964844 265.335938 189.335938 265.03125 188.695312 C 264.859375 188.335938 264.992188 188.089844 265.3125 187.867188 C 265.515625 187.730469 265.773438 187.496094 265.785156 187.292969 C 265.839844 186.609375 265.816406 185.917969 265.714844 185.238281 C 265.394531 183.4375 264.726562 181.691406 265.042969 179.796875 C 265.097656 179.34375 265.007812 178.890625 264.78125 178.496094 C 263.574219 176.402344 263.300781 174.035156 262.726562 171.753906 C 262.1875 169.59375 261.460938 167.527344 259.800781 165.917969 C 259.429688 165.5625 259.136719 165.136719 258.933594 164.667969 C 256.96875 159.894531 254.261719 155.550781 251.347656 151.320312 C 249.085938 148.03125 246.628906 144.898438 243.824219 142.066406 C 241.664062 139.894531 239.316406 137.914062 237.109375 135.789062 C 234.785156 133.546875 232.234375 131.589844 229.632812 129.699219 C 228.226562 128.675781 226.765625 127.738281 225.027344 127.335938 C 224.574219 127.230469 224.257812 127.3125 224.0625 127.726562 C 223.867188 128.140625 223.566406 128.125 223.246094 127.964844 C 222.628906 127.652344 222.019531 127.320312 221.429688 126.957031 C 221.1875 126.804688 221.015625 126.546875 220.707031 126.226562 C 221.480469 126.445312 222.070312 126.667969 222.683594 126.753906 C 222.941406 126.789062 223.238281 126.535156 223.515625 126.410156 C 223.347656 126.136719 223.242188 125.738281 222.996094 125.609375 C 221.359375 124.742188 219.714844 123.886719 218.039062 123.105469 C 212.511719 120.527344 206.824219 118.414062 200.839844 117.152344 C 199.585938 116.886719 198.34375 116.566406 197.082031 116.371094 C 195.554688 116.136719 193.992188 116.09375 192.480469 115.8125 C 190.570312 115.445312 188.628906 115.289062 186.6875 115.347656 C 184.65625 115.421875 182.609375 115.207031 180.582031 115.285156 C 178.382812 115.371094 176.1875 115.625 173.996094 115.839844 C 172.820312 115.957031 171.648438 116.117188 170.484375 116.320312 C 169.0625 116.566406 167.652344 116.875 166.238281 117.171875 C 165.484375 117.332031 164.734375 117.519531 163.988281 117.722656 C 163.585938 117.828125 163.460938 118.082031 163.589844 118.519531 C 163.699219 118.890625 163.675781 119.304688 163.726562 119.855469 C 163.953125 119.867188 164.3125 119.980469 164.601562 119.878906 C 165.21875 119.675781 165.816406 119.40625 166.382812 119.082031 C 167.472656 118.453125 167.882812 118.386719 169.230469 118.878906 C 168.746094 119.09375 168.355469 119.308594 167.933594 119.445312 C 167.101562 119.707031 166.242188 119.886719 165.417969 120.167969 C 163.652344 120.765625 161.863281 120.621094 160.066406 120.433594 C 159.964844 120.421875 159.804688 120.320312 159.792969 120.242188 C 159.785156 120.175781 159.796875 120.109375 159.816406 120.046875 C 159.839844 119.984375 159.878906 119.925781 159.925781 119.878906 C 160.066406 119.777344 160.269531 119.761719 160.4375 119.695312 C 160.992188 119.464844 161.539062 119.21875 161.929688 118.539062 C 160.640625 118.75 159.46875 118.886719 158.324219 119.148438 C 157.3125 119.394531 156.316406 119.699219 155.339844 120.066406 C 155.015625 120.179688 154.546875 120.40625 154.476562 120.667969 C 154.125 121.992188 153.085938 122.277344 151.984375 122.679688 C 150.046875 123.382812 148.175781 124.253906 146.277344 125.054688 C 145.445312 125.402344 144.621094 125.761719 143.785156 126.089844 C 143.613281 126.15625 143.332031 126.171875 143.210938 126.074219 C 142.757812 125.714844 142.925781 124.851562 143.457031 124.582031 C 144.035156 124.285156 144.589844 123.933594 145.179688 123.664062 C 146.417969 123.097656 147.667969 122.566406 148.917969 122.019531 C 149.359375 121.828125 149.65625 121.945312 149.847656 122.40625 C 150.023438 122.847656 150.40625 122.964844 150.808594 122.804688 C 151.460938 122.550781 152.089844 122.246094 152.6875 121.886719 C 152.933594 121.734375 153.234375 121.304688 153.179688 121.082031 C 153.03125 120.476562 153.304688 120.308594 153.777344 120.179688 C 154.488281 119.988281 155.207031 119.808594 155.902344 119.574219 C 156.316406 119.433594 156.554688 119.09375 156.429688 118.648438 C 156.289062 118.171875 155.851562 118.292969 155.542969 118.378906 C 153.492188 118.953125 151.402344 119.429688 149.417969 120.171875 C 144.726562 121.933594 140.089844 123.824219 135.429688 125.660156 C 135.1875 125.757812 134.933594 125.832031 134.691406 125.910156 C 134.671875 125.859375 134.648438 125.808594 134.625 125.757812 C 134.785156 125.609375 134.960938 125.476562 135.148438 125.363281 C 135.628906 125.140625 136.152344 124.992188 136.609375 124.734375 C 137.125 124.457031 137.605469 124.117188 138.035156 123.722656 C 138.332031 123.4375 138.210938 123.152344 137.738281 123.15625 C 137.386719 123.15625 137.035156 123.15625 136.683594 123.15625 L 136.652344 122.933594 C 137.058594 122.757812 137.453125 122.539062 137.871094 122.417969 C 139.375 121.984375 140.886719 121.59375 142.394531 121.167969 C 144.949219 120.445312 147.0625 119.027344 148.785156 117.015625 C 149.042969 116.71875 149.226562 116.355469 149.527344 115.898438 C 148.984375 115.898438 148.578125 115.808594 148.230469 115.914062 C 147.378906 116.179688 146.542969 116.511719 145.71875 116.859375 C 142.421875 118.257812 139.171875 119.761719 135.699219 120.707031 C 135.078125 120.878906 134.417969 120.894531 133.777344 120.984375 C 133.757812 120.910156 133.734375 120.832031 133.714844 120.757812 C 134.023438 120.566406 134.320312 120.355469 134.640625 120.195312 C 136.519531 119.253906 138.382812 118.285156 140.289062 117.398438 C 143.355469 115.96875 146.453125 114.605469 149.527344 113.191406 C 151.359375 112.347656 153.175781 111.460938 154.992188 110.574219 C 155.117188 110.515625 155.214844 110.378906 155.429688 110.179688 C 155.242188 110.167969 155.058594 110.167969 154.871094 110.179688 C 153.949219 110.359375 153.007812 110.488281 152.105469 110.746094 C 149.921875 111.363281 147.757812 112.058594 145.578125 112.714844 C 143.289062 113.410156 141.089844 114.285156 139.058594 115.59375 C 137.550781 116.5625 135.925781 117.359375 134.121094 117.644531 C 133.886719 117.679688 133.636719 117.59375 133.398438 117.566406 C 133.398438 117.5 133.398438 117.433594 133.398438 117.367188 C 133.820312 117.09375 134.292969 116.867188 134.652344 116.523438 C 134.898438 116.277344 135.179688 115.847656 135.125 115.558594 C 135.03125 115.050781 135.234375 114.816406 135.585938 114.605469 C 136.519531 114.0625 137.5 113.597656 138.394531 112.996094 C 139.308594 112.394531 140.167969 111.707031 140.953125 110.945312 C 141.316406 110.566406 141.777344 110.292969 142.28125 110.164062 C 142.847656 110.011719 143.460938 109.910156 143.9375 109.605469 C 145 108.921875 146 108.136719 147.011719 107.371094 C 147.195312 107.234375 147.308594 107 147.453125 106.804688 L 147.390625 106.589844 C 146.96875 106.636719 146.523438 106.597656 146.136719 106.742188 C 144.5625 107.347656 142.996094 107.984375 141.441406 108.652344 C 138.171875 110.0625 134.921875 111.523438 131.640625 112.914062 C 130.109375 113.566406 128.53125 114.117188 126.960938 114.671875 C 126.8125 114.71875 126.660156 114.738281 126.507812 114.726562 C 126.355469 114.714844 126.207031 114.671875 126.066406 114.601562 C 125.699219 114.351562 125.355469 114.289062 124.980469 114.484375 C 124.1875 114.902344 123.402344 115.332031 122.621094 115.769531 C 121.957031 116.140625 121.304688 116.527344 120.648438 116.90625 C 120.605469 116.84375 120.566406 116.78125 120.527344 116.71875 C 121.230469 116.101562 121.875 115.386719 122.65625 114.878906 C 124.796875 113.496094 127.019531 112.238281 129.160156 110.847656 C 130.199219 110.171875 131.136719 109.316406 132.101562 108.53125 C 132.222656 108.429688 132.292969 108.25 132.386719 108.105469 L 132.273438 107.953125 L 127.347656 110.242188 C 127.308594 110.171875 127.273438 110.097656 127.234375 110.023438 C 127.382812 109.890625 127.535156 109.765625 127.695312 109.652344 C 128.445312 109.15625 129.175781 108.628906 129.960938 108.195312 C 133.710938 106.113281 137.464844 104.050781 141.230469 102.007812 C 142.398438 101.375 143.632812 100.871094 144.804688 100.25 C 145.050781 100.117188 145.144531 99.71875 145.308594 99.441406 C 144.992188 99.351562 144.652344 99.144531 144.359375 99.195312 C 143.683594 99.316406 143.019531 99.507812 142.378906 99.769531 C 140.378906 100.585938 138.371094 101.386719 136.425781 102.316406 C 134.433594 103.261719 132.511719 104.359375 130.550781 105.375 C 129.828125 105.746094 129.082031 106.085938 128.347656 106.441406 L 128.273438 106.304688 C 128.433594 106.152344 128.605469 106.007812 128.785156 105.882812 C 130.707031 104.753906 132.585938 103.53125 134.574219 102.527344 C 138.027344 100.777344 141.542969 99.148438 145.171875 97.789062 C 148.308594 96.613281 151.460938 95.472656 154.617188 94.335938 C 155.144531 94.144531 155.480469 93.902344 155.351562 93.273438 C 155.261719 92.855469 155.472656 92.613281 155.828125 92.386719 C 157.515625 91.28125 159.347656 90.777344 161.355469 90.988281 C 162.230469 91.082031 162.871094 90.828125 163.4375 90.117188 C 163.699219 89.785156 164.300781 89.488281 164.691406 89.542969 C 166.210938 89.761719 167.511719 89.230469 168.804688 88.59375 C 169.089844 88.453125 169.316406 88.195312 169.570312 87.992188 L 169.453125 87.730469 C 163.558594 88.253906 157.84375 89.785156 152.085938 91.078125 L 152.019531 90.890625 L 155.148438 89.332031 C 154.957031 89.21875 154.730469 89.175781 154.507812 89.210938 C 153.820312 89.285156 153.132812 89.375 152.445312 89.464844 C 152.101562 89.496094 151.761719 89.554688 151.425781 89.636719 C 149.667969 90.136719 147.890625 90.589844 146.164062 91.1875 C 141.578125 92.769531 137.121094 94.679688 132.738281 96.753906 C 129.769531 98.160156 126.847656 99.660156 123.902344 101.109375 C 123.421875 101.34375 122.925781 101.542969 122.289062 101.820312 C 122.421875 101.484375 122.511719 101.339844 122.535156 101.1875 C 122.570312 100.972656 122.648438 100.644531 122.550781 100.566406 C 122.394531 100.445312 122.09375 100.433594 121.882812 100.492188 C 121.492188 100.589844 121.113281 100.746094 120.761719 100.949219 C 119.433594 101.753906 118.078125 102.527344 116.824219 103.433594 C 115.503906 104.390625 114.105469 105.289062 113.277344 106.792969 C 113.113281 107.058594 112.875 107.265625 112.59375 107.398438 C 112.375 107.5 112.078125 107.4375 111.816406 107.449219 C 111.902344 107.226562 111.9375 106.957031 112.085938 106.789062 C 112.984375 105.855469 113.863281 104.890625 114.835938 104.039062 C 116.746094 102.363281 118.679688 100.707031 120.671875 99.132812 C 122.191406 97.929688 123.804688 96.839844 125.40625 95.738281 C 127.324219 94.417969 129.289062 93.164062 131.203125 91.832031 C 133.386719 90.316406 135.527344 88.738281 137.703125 87.210938 C 137.832031 87.128906 137.976562 87.074219 138.125 87.050781 C 138.277344 87.023438 138.429688 87.027344 138.578125 87.0625 C 139.90625 87.464844 140.96875 86.925781 141.875 86.085938 C 142.777344 85.246094 143.746094 84.777344 145.019531 84.902344 C 146.164062 85.011719 147.238281 84.625 148.265625 84.140625 C 149.828125 83.398438 151.355469 82.574219 152.960938 81.941406 C 153.996094 81.53125 155.105469 81.148438 156.28125 81.476562 C 156.625 81.585938 156.992188 81.574219 157.328125 81.449219 C 157.664062 81.320312 157.949219 81.085938 158.132812 80.777344 C 158.289062 80.539062 158.367188 80.238281 158.554688 80.035156 C 158.738281 79.832031 159.054688 79.585938 159.210938 79.644531 C 160.664062 80.183594 162 79.519531 163.351562 79.246094 C 164.675781 78.972656 165.945312 78.429688 167.257812 78.085938 C 167.847656 77.929688 168.585938 77.722656 169.03125 78.332031 C 169.378906 78.808594 169.769531 78.789062 170.214844 78.726562 C 171.929688 78.496094 173.640625 78.1875 175.363281 78.023438 C 177.035156 77.859375 178.71875 77.773438 180.398438 77.773438 C 183.75 77.773438 187.101562 77.851562 190.453125 77.898438 C 191.132812 77.90625 191.8125 77.867188 192.484375 77.917969 C 194.320312 78.050781 196.152344 78.269531 197.988281 78.363281 C 199.078125 78.417969 199.992188 78.609375 200.527344 79.699219 C 200.773438 80.210938 201.265625 80.378906 201.835938 80.113281 C 202.070312 79.988281 202.324219 79.90625 202.585938 79.875 C 203.828125 79.84375 205.117188 79.402344 206.289062 80.207031 C 206.332031 80.238281 206.410156 80.226562 206.46875 80.238281 C 207.519531 80.460938 208.570312 80.695312 209.621094 80.914062 C 210.933594 81.1875 212.265625 81.394531 213.558594 81.738281 C 214.851562 82.082031 216.152344 82.460938 217.121094 83.523438 C 217.339844 83.769531 217.699219 83.886719 218.003906 84.042969 C 218.414062 84.253906 218.84375 84.433594 219.253906 84.652344 C 219.625 84.851562 219.964844 85.136719 220.355469 85.304688 C 223.105469 86.472656 225.835938 87.6875 228.625 88.757812 C 232.007812 90.054688 235.484375 91.097656 238.722656 92.746094 C 240.730469 93.769531 242.734375 94.800781 244.359375 96.402344 C 246.136719 98.160156 248.085938 99.636719 250.433594 100.585938 C 251.09375 100.867188 251.640625 101.359375 251.984375 101.984375 C 252.808594 103.640625 254.175781 104.667969 255.679688 105.554688 C 257.492188 106.632812 259.101562 107.972656 260.621094 109.390625 C 262.835938 111.453125 264.976562 113.59375 267.039062 115.8125 C 269.105469 118.039062 271.066406 120.363281 272.992188 122.714844 C 274.273438 124.277344 275.476562 125.914062 276.597656 127.597656 C 278.5 130.453125 280.375 133.335938 282.136719 136.28125 C 283.410156 138.414062 284.464844 140.679688 285.648438 142.867188 C 286.871094 145.128906 288.207031 147.328125 289.34375 149.632812 C 289.957031 150.871094 290.304688 152.257812 290.667969 153.605469 C 291.03125 154.957031 291.148438 156.382812 291.976562 157.523438 C 292.632812 158.40625 293.089844 159.417969 293.316406 160.496094 C 293.441406 161.09375 293.488281 161.707031 293.582031 162.3125 C 293.839844 163.984375 294.113281 165.652344 294.367188 167.328125 C 294.652344 169.214844 295.289062 170.960938 296.433594 172.503906 C 296.679688 172.84375 296.660156 173.132812 296.371094 173.433594 C 295.628906 174.191406 295.460938 175.078125 295.75 176.09375 C 295.835938 176.390625 295.917969 176.867188 295.761719 177.027344 C 295.125 177.675781 295.128906 178.492188 294.953125 179.289062 C 294.8125 179.914062 294.953125 180.394531 295.242188 180.910156 C 295.585938 181.488281 295.878906 182.089844 296.121094 182.714844 C 296.394531 183.46875 296.234375 183.613281 295.414062 183.472656 C 295.042969 184.296875 294.761719 185.117188 295.027344 186.070312 C 295.265625 186.925781 295.125 187.785156 294.753906 188.589844 C 294.457031 189.222656 293.933594 189.40625 293.402344 189.074219 C 293.28125 189 293.21875 188.828125 293.128906 188.703125 C 293.265625 188.648438 293.417969 188.515625 293.535156 188.542969 C 294.136719 188.695312 294.230469 188.246094 294.359375 187.863281 C 294.414062 187.644531 294.445312 187.421875 294.449219 187.195312 C 294.535156 186.265625 294.855469 185.339844 294.335938 184.417969 C 294.222656 184.210938 294.285156 183.839844 294.382812 183.59375 C 294.789062 182.558594 294.691406 181.539062 294.363281 180.523438 C 294.230469 180.113281 294.132812 179.542969 293.550781 179.601562 C 292.972656 179.65625 293.148438 180.253906 292.996094 180.621094 C 292.902344 180.839844 292.683594 181.125 292.488281 181.152344 C 292.03125 181.210938 291.785156 181.441406 291.785156 181.851562 C 291.785156 183.28125 291.839844 184.714844 291.84375 186.148438 C 291.847656 186.542969 291.78125 186.9375 291.648438 187.308594 C 291.402344 187.957031 290.921875 188.546875 290.820312 189.207031 C 290.550781 190.863281 290.386719 192.535156 290.324219 194.214844 C 290.273438 196.121094 290.027344 197.960938 289.183594 199.6875 C 288.898438 200.269531 288.902344 200.839844 289.070312 201.464844 C 289.324219 202.410156 289.347656 203.375 288.859375 204.269531 C 288.746094 204.472656 288.511719 204.605469 288.265625 204.828125 C 288.195312 204.570312 288.148438 204.492188 288.15625 204.414062 C 288.34375 202.886719 287.84375 201.34375 288.296875 199.820312 C 288.382812 199.503906 288.421875 199.175781 288.421875 198.847656 C 288.472656 196.730469 288.527344 194.617188 288.546875 192.5 C 288.566406 190.4375 288.566406 188.375 288.546875 186.3125 C 288.53125 184.839844 288.5 183.359375 288.402344 181.886719 C 288.382812 181.5625 288.136719 181.121094 287.863281 180.960938 C 287.078125 180.496094 287 180.371094 287.585938 179.632812 C 287.914062 179.226562 287.816406 178.910156 287.574219 178.527344 C 287.347656 178.171875 287.09375 177.800781 287.003906 177.398438 C 286.835938 176.664062 286.84375 175.890625 286.660156 175.160156 C 286.125 173.007812 285.578125 170.859375 284.957031 168.734375 C 284.152344 165.984375 283.035156 163.355469 281.738281 160.804688 C 281.550781 160.433594 281.207031 160.148438 280.933594 159.824219 L 280.628906 159.925781 C 280.613281 160.347656 280.503906 160.792969 280.601562 161.183594 C 280.839844 162.230469 281.234375 163.246094 281.4375 164.296875 C 281.636719 165.347656 281.9375 166.351562 282.65625 167.1875 C 282.832031 167.414062 282.980469 167.660156 283.101562 167.917969 C 283.296875 168.289062 283.292969 168.59375 282.878906 168.859375 C 282.777344 168.9375 282.691406 169.03125 282.628906 169.140625 C 282.566406 169.253906 282.523438 169.375 282.507812 169.5 C 282.464844 169.988281 282.476562 170.476562 282.539062 170.960938 C 282.753906 172.664062 283.066406 174.355469 283.21875 176.0625 C 283.445312 178.554688 283.644531 181.058594 283.707031 183.558594 C 283.769531 186.105469 283.679688 188.660156 283.597656 191.210938 C 283.535156 193.160156 283.441406 195.113281 283.25 197.054688 C 283.046875 199.148438 282.71875 201.230469 282.433594 203.3125 C 282.246094 204.675781 282.109375 206.035156 281.832031 207.375 C 281.453125 209.222656 281.003906 211.0625 280.507812 212.882812 C 279.804688 215.492188 279.097656 218.105469 278.273438 220.679688 C 276.929688 224.789062 275.261719 228.785156 273.285156 232.628906 C 269.875 239.28125 265.667969 245.496094 260.753906 251.128906 C 259.769531 252.261719 258.683594 253.308594 257.636719 254.386719 C 257.066406 254.976562 256.515625 255.589844 255.890625 256.117188 C 255.679688 256.296875 255.269531 256.273438 254.953125 256.292969 C 254.375 256.328125 253.746094 256.1875 253.230469 256.375 C 252.59375 256.605469 252.058594 257.109375 251.464844 257.464844 C 251.175781 257.617188 250.875 257.75 250.570312 257.863281 L 250.570312 256.882812 C 250.097656 257.027344 249.582031 257.074219 249.191406 257.320312 C 247.300781 258.496094 245.429688 259.707031 243.574219 260.9375 C 241.085938 262.582031 238.640625 264.292969 236.136719 265.910156 C 232.15625 268.484375 228.117188 270.972656 223.804688 272.953125 C 221.589844 273.972656 219.292969 274.820312 217 275.648438 C 215.492188 276.191406 213.929688 276.574219 212.386719 277.007812 C 211.414062 277.28125 210.496094 277.796875 209.417969 277.589844 C 209.199219 277.546875 208.9375 277.71875 208.640625 277.808594 C 208.777344 278.054688 208.871094 278.210938 208.953125 278.371094 C 209.171875 278.804688 209.039062 279.113281 208.5625 279.164062 C 207.613281 279.28125 206.65625 279.414062 205.703125 279.429688 C 203.175781 279.460938 200.648438 279.359375 198.125 279.457031 C 196.789062 279.511719 195.472656 279.886719 194.140625 280.078125 C 193.636719 280.152344 193.117188 280.128906 192.601562 280.140625 C 191.652344 280.167969 190.59375 279.925781 189.78125 280.273438 C 188.410156 280.859375 187.023438 280.796875 185.675781 280.730469 C 183.480469 280.621094 181.304688 280.183594 179.113281 279.941406 C 178.558594 279.882812 177.925781 279.738281 177.308594 280.304688 L 178.738281 281.214844 L 178.65625 281.414062 C 177.675781 281.277344 176.6875 281.191406 175.726562 280.988281 C 174.910156 280.8125 174.871094 280.574219 175.46875 279.921875 C 175.304688 279.828125 175.164062 279.675781 175.003906 279.660156 C 174.117188 279.535156 173.226562 279.382812 172.335938 279.375 C 171.996094 279.375 171.601562 279.675781 171.332031 279.941406 C 170.992188 280.273438 170.65625 280.367188 170.21875 280.242188 C 169.835938 280.113281 169.441406 280.003906 169.042969 279.921875 C 167.734375 279.699219 166.421875 279.503906 165.113281 279.304688 C 164.519531 279.210938 163.925781 279.125 163.332031 279.035156 L 163.285156 279.210938 C 163.734375 279.4375 164.167969 279.71875 164.644531 279.886719 C 165.835938 280.304688 167.0625 280.628906 168.242188 281.078125 C 169.132812 281.417969 169.980469 281.882812 170.828125 282.328125 C 170.984375 282.414062 171.039062 282.679688 171.144531 282.863281 C 170.957031 282.953125 170.773438 283.117188 170.582031 283.121094 C 170.328125 283.128906 170.070312 282.992188 169.808594 282.957031 C 169.492188 282.917969 169.167969 282.921875 168.851562 282.90625 L 168.804688 283.152344 L 170.125 283.664062 L 170.078125 283.886719 C 169.730469 283.871094 169.382812 283.835938 169.039062 283.78125 C 168.085938 283.582031 167.132812 283.367188 166.1875 283.128906 C 164.574219 282.726562 162.960938 282.308594 161.351562 281.882812 C 160 281.523438 158.65625 281.140625 157.304688 280.769531 C 156.285156 280.492188 155.265625 280.222656 154.238281 279.972656 C 153.433594 279.773438 152.621094 279.585938 151.804688 279.4375 C 151.636719 279.410156 151.433594 279.59375 151.242188 279.679688 C 151.332031 279.875 151.375 280.132812 151.523438 280.246094 C 151.832031 280.476562 152.195312 280.632812 152.539062 280.808594 C 155.96875 282.601562 159.648438 283.710938 163.375 284.675781 C 164.808594 285.046875 166.257812 285.355469 167.6875 285.738281 C 169.136719 286.125 170.582031 286.535156 172.011719 286.972656 C 173.125 287.320312 174.210938 287.71875 175.296875 288.121094 C 175.441406 288.175781 175.53125 288.367188 175.644531 288.492188 C 175.554688 288.558594 175.464844 288.667969 175.363281 288.679688 C 174.375 288.816406 173.382812 288.945312 172.386719 289.058594 C 172.015625 289.101562 171.476562 288.957031 171.445312 289.460938 C 171.433594 289.667969 171.96875 289.921875 172.269531 290.132812 C 172.34375 290.1875 172.472656 290.152344 172.570312 290.183594 C 173.03125 290.34375 173.511719 290.46875 173.941406 290.679688 C 174.179688 290.804688 174.339844 291.074219 174.535156 291.277344 L 174.402344 291.449219 C 174.207031 291.441406 174.007812 291.417969 173.816406 291.375 C 173.058594 291.144531 172.320312 290.8125 171.542969 290.679688 C 170.683594 290.53125 169.808594 290.484375 168.9375 290.542969 C 168.234375 290.589844 168.070312 291.101562 168.578125 291.597656 C 169.023438 292.042969 169.519531 292.546875 170.089844 292.730469 C 171.535156 293.203125 173.03125 293.507812 174.507812 293.882812 C 175.410156 294.109375 176.332031 294.285156 177.207031 294.59375 C 177.671875 294.757812 178.058594 295.144531 178.460938 295.460938 C 178.503906 295.511719 178.53125 295.574219 178.550781 295.636719 C 178.566406 295.699219 178.566406 295.765625 178.554688 295.832031 C 178.542969 295.898438 178.367188 295.964844 178.261719 295.976562 C 178.078125 296.007812 177.890625 296 177.707031 295.957031 C 176.402344 295.546875 175.097656 295.160156 173.703125 295.226562 C 173.539062 295.210938 173.378906 295.175781 173.222656 295.121094 C 172.085938 294.875 170.957031 294.605469 169.8125 294.40625 C 169.382812 294.332031 168.925781 294.429688 168.484375 294.449219 L 168.460938 294.679688 C 168.652344 294.78125 168.832031 294.9375 169.03125 294.976562 C 170.320312 295.203125 171.609375 295.402344 172.898438 295.617188 C 173.140625 295.644531 173.375 295.707031 173.597656 295.804688 C 174.1875 296.089844 174.761719 296.398438 175.328125 296.714844 C 175.597656 296.863281 175.84375 297.054688 176.101562 297.222656 C 176.078125 297.289062 176.058594 297.347656 176.035156 297.414062 C 175.78125 297.414062 175.523438 297.460938 175.28125 297.414062 C 174.089844 297.167969 172.894531 296.90625 171.710938 296.617188 C 169.308594 296.027344 166.910156 295.40625 164.503906 294.816406 C 163.019531 294.453125 161.550781 294.035156 160.046875 293.828125 C 159.191406 293.703125 158.5625 293.40625 158.082031 292.75 C 157.835938 292.394531 157.511719 292.105469 157.132812 291.898438 C 156.753906 291.691406 156.332031 291.574219 155.902344 291.554688 C 154.558594 291.484375 153.230469 290.980469 151.851562 291.390625 C 151.585938 291.46875 151.207031 291.300781 150.925781 291.15625 C 150.195312 290.792969 149.453125 290.433594 148.78125 289.976562 C 147.5625 289.152344 146.191406 288.589844 144.746094 288.324219 C 143.632812 288.109375 142.507812 287.925781 141.394531 287.6875 C 140.882812 287.578125 140.402344 287.304688 139.886719 287.222656 C 139.171875 287.113281 139.023438 287.363281 139.304688 288.027344 C 139.402344 288.265625 139.457031 288.523438 139.535156 288.769531 L 139.367188 288.871094 C 139.21875 288.785156 138.988281 288.734375 138.9375 288.605469 C 138.648438 287.914062 138.039062 287.652344 137.4375 287.335938 C 137.238281 287.230469 137.003906 286.851562 137.050781 286.671875 C 137.25 285.945312 136.828125 285.683594 136.3125 285.40625 C 134.765625 284.574219 133.191406 283.78125 131.707031 282.851562 C 128.640625 280.933594 125.578125 279.015625 122.609375 276.953125 C 120.332031 275.375 118.195312 273.59375 116.007812 271.890625 C 115.425781 271.4375 114.800781 271 114.339844 270.4375 C 112.402344 268.042969 110.492188 265.628906 108.621094 263.1875 C 107.035156 261.113281 105.488281 259.011719 103.554688 257.234375 C 103.367188 257.042969 103.152344 256.882812 102.921875 256.753906 C 102.753906 256.667969 102.535156 256.695312 102.339844 256.675781 C 102.328125 256.867188 102.253906 257.082031 102.3125 257.25 C 102.4375 257.554688 102.59375 257.84375 102.773438 258.117188 C 104.566406 260.972656 106.660156 263.625 109.023438 266.019531 C 110.691406 267.722656 112.5 269.292969 114.242188 270.917969 C 115.609375 272.195312 116.949219 273.503906 118.351562 274.738281 C 120.214844 276.375 122.140625 277.945312 124.015625 279.5625 C 124.289062 279.800781 124.433594 280.183594 124.632812 280.503906 L 124.449219 280.675781 C 124.148438 280.53125 123.820312 280.429688 123.554688 280.230469 C 120.078125 277.671875 116.570312 275.148438 113.148438 272.515625 C 111.171875 270.992188 109.328125 269.296875 107.429688 267.667969 C 106.382812 266.765625 105.554688 265.761719 105.609375 264.234375 C 105.632812 263.492188 104.984375 262.925781 104.382812 263.105469 C 103.78125 263.28125 103.484375 263.011719 103.183594 262.625 C 102.0625 261.1875 100.925781 259.761719 99.847656 258.292969 C 96.667969 254.023438 93.867188 249.492188 91.464844 244.742188 C 88.6875 239.203125 86.460938 233.402344 84.824219 227.425781 C 83.6875 223.277344 82.722656 219.101562 82.0625 214.851562 C 81.957031 214.167969 81.75 213.5 81.664062 212.816406 C 81.488281 211.417969 81.351562 210.011719 81.222656 208.605469 C 81.0625 206.808594 80.921875 205.015625 80.78125 203.21875 C 80.746094 202.808594 80.742188 202.398438 80.707031 201.988281 C 80.574219 200.417969 80.460938 198.84375 80.285156 197.277344 C 80.226562 196.75 80.109375 196.179688 79.851562 195.726562 C 78.953125 194.144531 78.449219 192.453125 78.457031 190.644531 C 78.5 187.769531 78.457031 184.898438 78.78125 181.992188 Z M 78.78125 181.992188 " clip-rule="nonzero"/></clipPath><linearGradient x1="1897.420253" gradientTransform="matrix(-0.123584, 0, 0, 0.123729, 296.603447, 77.774048)" y1="190.740511" x2="-126.395195" gradientUnits="userSpaceOnUse" y2="1593.126223" id="256c0d53a8"><stop stop-opacity="1" stop-color="rgb(100%, 0%, 0%)" offset="0"/><stop stop-opacity="1" stop-color="rgb(100%, 0%, 0%)" offset="0.0625"/><stop stop-opacity="1" stop-color="rgb(99.771118%, 0.18158%, 0.239563%)" offset="0.0664062"/><stop stop-opacity="1" stop-color="rgb(99.543762%, 0.363159%, 0.480652%)" offset="0.0703125"/><stop stop-opacity="1" stop-color="rgb(99.179077%, 0.654602%, 0.865173%)" offset="0.0742187"/><stop stop-opacity="1" stop-color="rgb(98.815918%, 0.946045%, 1.249695%)" offset="0.078125"/><stop stop-opacity="1" stop-color="rgb(98.451233%, 1.237488%, 1.634216%)" offset="0.0820312"/><stop stop-opacity="1" stop-color="rgb(98.086548%, 1.528931%, 2.018738%)" offset="0.0859375"/><stop stop-opacity="1" stop-color="rgb(97.721863%, 1.820374%, 2.403259%)" offset="0.0898438"/><stop stop-opacity="1" stop-color="rgb(97.357178%, 2.111816%, 2.787781%)" offset="0.09375"/><stop stop-opacity="1" stop-color="rgb(96.992493%, 2.403259%, 3.172302%)" offset="0.0976562"/><stop stop-opacity="1" stop-color="rgb(96.629333%, 2.694702%, 3.55835%)" offset="0.101562"/><stop stop-opacity="1" stop-color="rgb(96.264648%, 2.986145%, 3.942871%)" offset="0.105469"/><stop stop-opacity="1" stop-color="rgb(95.899963%, 3.277588%, 4.327393%)" offset="0.109375"/><stop stop-opacity="1" stop-color="rgb(95.535278%, 3.569031%, 4.711914%)" offset="0.113281"/><stop stop-opacity="1" stop-color="rgb(95.172119%, 3.860474%, 5.096436%)" offset="0.117187"/><stop stop-opacity="1" stop-color="rgb(94.807434%, 4.151917%, 5.480957%)" offset="0.121094"/><stop stop-opacity="1" stop-color="rgb(94.442749%, 4.443359%, 5.867004%)" offset="0.125"/><stop stop-opacity="1" stop-color="rgb(94.078064%, 4.733276%, 6.251526%)" offset="0.128906"/><stop stop-opacity="1" stop-color="rgb(93.714905%, 5.024719%, 6.636047%)" offset="0.132812"/><stop stop-opacity="1" stop-color="rgb(93.35022%, 5.316162%, 7.020569%)" offset="0.136719"/><stop stop-opacity="1" stop-color="rgb(92.985535%, 5.607605%, 7.40509%)" offset="0.140625"/><stop stop-opacity="1" stop-color="rgb(92.62085%, 5.899048%, 7.789612%)" offset="0.144531"/><stop stop-opacity="1" stop-color="rgb(92.25769%, 6.190491%, 8.175659%)" offset="0.148437"/><stop stop-opacity="1" stop-color="rgb(91.893005%, 6.481934%, 8.560181%)" offset="0.152344"/><stop stop-opacity="1" stop-color="rgb(91.52832%, 6.773376%, 8.944702%)" offset="0.15625"/><stop stop-opacity="1" stop-color="rgb(91.163635%, 7.064819%, 9.329224%)" offset="0.160156"/><stop stop-opacity="1" stop-color="rgb(90.800476%, 7.356262%, 9.713745%)" offset="0.164062"/><stop stop-opacity="1" stop-color="rgb(90.435791%, 7.647705%, 10.098267%)" offset="0.167969"/><stop stop-opacity="1" stop-color="rgb(90.071106%, 7.939148%, 10.482788%)" offset="0.171875"/><stop stop-opacity="1" stop-color="rgb(89.706421%, 8.230591%, 10.86731%)" offset="0.175781"/><stop stop-opacity="1" stop-color="rgb(89.343262%, 8.522034%, 11.253357%)" offset="0.179688"/><stop stop-opacity="1" stop-color="rgb(88.978577%, 8.813477%, 11.637878%)" offset="0.183594"/><stop stop-opacity="1" stop-color="rgb(88.613892%, 9.104919%, 12.0224%)" offset="0.1875"/><stop stop-opacity="1" stop-color="rgb(88.249207%, 9.396362%, 12.406921%)" offset="0.191406"/><stop stop-opacity="1" stop-color="rgb(87.884521%, 9.687805%, 12.791443%)" offset="0.195312"/><stop stop-opacity="1" stop-color="rgb(87.519836%, 9.979248%, 13.175964%)" offset="0.199219"/><stop stop-opacity="1" stop-color="rgb(87.156677%, 10.270691%, 13.562012%)" offset="0.203125"/><stop stop-opacity="1" stop-color="rgb(86.791992%, 10.562134%, 13.946533%)" offset="0.207031"/><stop stop-opacity="1" stop-color="rgb(86.427307%, 10.853577%, 14.331055%)" offset="0.210938"/><stop stop-opacity="1" stop-color="rgb(86.062622%, 11.14502%, 14.715576%)" offset="0.214844"/><stop stop-opacity="1" stop-color="rgb(85.699463%, 11.436462%, 15.100098%)" offset="0.21875"/><stop stop-opacity="1" stop-color="rgb(85.334778%, 11.727905%, 15.484619%)" offset="0.222656"/><stop stop-opacity="1" stop-color="rgb(84.970093%, 12.019348%, 15.869141%)" offset="0.226562"/><stop stop-opacity="1" stop-color="rgb(84.605408%, 12.309265%, 16.253662%)" offset="0.230469"/><stop stop-opacity="1" stop-color="rgb(84.242249%, 12.600708%, 16.639709%)" offset="0.234375"/><stop stop-opacity="1" stop-color="rgb(83.877563%, 12.892151%, 17.024231%)" offset="0.238281"/><stop stop-opacity="1" stop-color="rgb(83.512878%, 13.183594%, 17.408752%)" offset="0.242187"/><stop stop-opacity="1" stop-color="rgb(83.148193%, 13.475037%, 17.793274%)" offset="0.246094"/><stop stop-opacity="1" stop-color="rgb(82.785034%, 13.766479%, 18.177795%)" offset="0.25"/><stop stop-opacity="1" stop-color="rgb(82.420349%, 14.057922%, 18.562317%)" offset="0.253906"/><stop stop-opacity="1" stop-color="rgb(82.055664%, 14.349365%, 18.948364%)" offset="0.257812"/><stop stop-opacity="1" stop-color="rgb(81.690979%, 14.640808%, 19.332886%)" offset="0.261719"/><stop stop-opacity="1" stop-color="rgb(81.32782%, 14.932251%, 19.717407%)" offset="0.265625"/><stop stop-opacity="1" stop-color="rgb(80.963135%, 15.223694%, 20.101929%)" offset="0.269531"/><stop stop-opacity="1" stop-color="rgb(80.59845%, 15.515137%, 20.48645%)" offset="0.273438"/><stop stop-opacity="1" stop-color="rgb(80.233765%, 15.80658%, 20.870972%)" offset="0.277344"/><stop stop-opacity="1" stop-color="rgb(79.86908%, 16.098022%, 21.257019%)" offset="0.28125"/><stop stop-opacity="1" stop-color="rgb(79.504395%, 16.389465%, 21.641541%)" offset="0.285156"/><stop stop-opacity="1" stop-color="rgb(79.141235%, 16.680908%, 22.026062%)" offset="0.289062"/><stop stop-opacity="1" stop-color="rgb(78.77655%, 16.972351%, 22.410583%)" offset="0.292969"/><stop stop-opacity="1" stop-color="rgb(78.411865%, 17.263794%, 22.795105%)" offset="0.296875"/><stop stop-opacity="1" stop-color="rgb(78.04718%, 17.555237%, 23.179626%)" offset="0.300781"/><stop stop-opacity="1" stop-color="rgb(77.684021%, 17.84668%, 23.564148%)" offset="0.304687"/><stop stop-opacity="1" stop-color="rgb(77.319336%, 18.138123%, 23.948669%)" offset="0.308594"/><stop stop-opacity="1" stop-color="rgb(76.954651%, 18.429565%, 24.334717%)" offset="0.3125"/><stop stop-opacity="1" stop-color="rgb(76.589966%, 18.721008%, 24.719238%)" offset="0.316406"/><stop stop-opacity="1" stop-color="rgb(76.226807%, 19.012451%, 25.10376%)" offset="0.320312"/><stop stop-opacity="1" stop-color="rgb(75.862122%, 19.303894%, 25.488281%)" offset="0.324219"/><stop stop-opacity="1" stop-color="rgb(75.497437%, 19.595337%, 25.872803%)" offset="0.328125"/><stop stop-opacity="1" stop-color="rgb(75.132751%, 19.885254%, 26.257324%)" offset="0.332031"/><stop stop-opacity="1" stop-color="rgb(74.769592%, 20.176697%, 26.643372%)" offset="0.335938"/><stop stop-opacity="1" stop-color="rgb(74.404907%, 20.46814%, 27.027893%)" offset="0.339844"/><stop stop-opacity="1" stop-color="rgb(74.040222%, 20.759583%, 27.412415%)" offset="0.34375"/><stop stop-opacity="1" stop-color="rgb(73.675537%, 21.051025%, 27.796936%)" offset="0.347656"/><stop stop-opacity="1" stop-color="rgb(73.312378%, 21.342468%, 28.181458%)" offset="0.351562"/><stop stop-opacity="1" stop-color="rgb(72.947693%, 21.633911%, 28.565979%)" offset="0.355469"/><stop stop-opacity="1" stop-color="rgb(72.583008%, 21.925354%, 28.9505%)" offset="0.359375"/><stop stop-opacity="1" stop-color="rgb(72.218323%, 22.216797%, 29.335022%)" offset="0.363281"/><stop stop-opacity="1" stop-color="rgb(71.853638%, 22.50824%, 29.721069%)" offset="0.367188"/><stop stop-opacity="1" stop-color="rgb(71.488953%, 22.799683%, 30.105591%)" offset="0.371094"/><stop stop-opacity="1" stop-color="rgb(71.125793%, 23.091125%, 30.490112%)" offset="0.375"/><stop stop-opacity="1" stop-color="rgb(70.761108%, 23.382568%, 30.874634%)" offset="0.378906"/><stop stop-opacity="1" stop-color="rgb(70.396423%, 23.674011%, 31.259155%)" offset="0.382812"/><stop stop-opacity="1" stop-color="rgb(70.031738%, 23.965454%, 31.643677%)" offset="0.386719"/><stop stop-opacity="1" stop-color="rgb(69.668579%, 24.256897%, 32.029724%)" offset="0.390625"/><stop stop-opacity="1" stop-color="rgb(69.303894%, 24.54834%, 32.414246%)" offset="0.394531"/><stop stop-opacity="1" stop-color="rgb(68.939209%, 24.839783%, 32.798767%)" offset="0.398438"/><stop stop-opacity="1" stop-color="rgb(68.574524%, 25.131226%, 33.183289%)" offset="0.402344"/><stop stop-opacity="1" stop-color="rgb(68.211365%, 25.422668%, 33.56781%)" offset="0.40625"/><stop stop-opacity="1" stop-color="rgb(67.84668%, 25.714111%, 33.952332%)" offset="0.410156"/><stop stop-opacity="1" stop-color="rgb(67.481995%, 26.005554%, 34.338379%)" offset="0.414062"/><stop stop-opacity="1" stop-color="rgb(67.11731%, 26.296997%, 34.7229%)" offset="0.417969"/><stop stop-opacity="1" stop-color="rgb(66.75415%, 26.58844%, 35.107422%)" offset="0.421875"/><stop stop-opacity="1" stop-color="rgb(66.389465%, 26.878357%, 35.491943%)" offset="0.425781"/><stop stop-opacity="1" stop-color="rgb(66.02478%, 27.1698%, 35.876465%)" offset="0.429688"/><stop stop-opacity="1" stop-color="rgb(65.660095%, 27.461243%, 36.260986%)" offset="0.433594"/><stop stop-opacity="1" stop-color="rgb(65.296936%, 27.752686%, 36.645508%)" offset="0.4375"/><stop stop-opacity="1" stop-color="rgb(64.932251%, 28.044128%, 37.030029%)" offset="0.441406"/><stop stop-opacity="1" stop-color="rgb(64.567566%, 28.335571%, 37.416077%)" offset="0.445312"/><stop stop-opacity="1" stop-color="rgb(64.202881%, 28.627014%, 37.800598%)" offset="0.449219"/><stop stop-opacity="1" stop-color="rgb(63.839722%, 28.918457%, 38.18512%)" offset="0.453125"/><stop stop-opacity="1" stop-color="rgb(63.475037%, 29.2099%, 38.569641%)" offset="0.457031"/><stop stop-opacity="1" stop-color="rgb(63.110352%, 29.501343%, 38.954163%)" offset="0.460937"/><stop stop-opacity="1" stop-color="rgb(62.745667%, 29.792786%, 39.338684%)" offset="0.464844"/><stop stop-opacity="1" stop-color="rgb(62.380981%, 30.084229%, 39.724731%)" offset="0.46875"/><stop stop-opacity="1" stop-color="rgb(62.016296%, 30.375671%, 40.109253%)" offset="0.472656"/><stop stop-opacity="1" stop-color="rgb(61.653137%, 30.667114%, 40.493774%)" offset="0.476562"/><stop stop-opacity="1" stop-color="rgb(61.288452%, 30.958557%, 40.878296%)" offset="0.480469"/><stop stop-opacity="1" stop-color="rgb(60.923767%, 31.25%, 41.262817%)" offset="0.484375"/><stop stop-opacity="1" stop-color="rgb(60.559082%, 31.541443%, 41.647339%)" offset="0.488281"/><stop stop-opacity="1" stop-color="rgb(60.195923%, 31.832886%, 42.03186%)" offset="0.492187"/><stop stop-opacity="1" stop-color="rgb(59.831238%, 32.124329%, 42.416382%)" offset="0.496094"/><stop stop-opacity="1" stop-color="rgb(59.466553%, 32.415771%, 42.802429%)" offset="0.5"/><stop stop-opacity="1" stop-color="rgb(59.101868%, 32.707214%, 43.186951%)" offset="0.503906"/><stop stop-opacity="1" stop-color="rgb(58.738708%, 32.998657%, 43.571472%)" offset="0.507812"/><stop stop-opacity="1" stop-color="rgb(58.374023%, 33.2901%, 43.955994%)" offset="0.511719"/><stop stop-opacity="1" stop-color="rgb(58.009338%, 33.581543%, 44.340515%)" offset="0.515625"/><stop stop-opacity="1" stop-color="rgb(57.644653%, 33.872986%, 44.725037%)" offset="0.519531"/><stop stop-opacity="1" stop-color="rgb(57.281494%, 34.164429%, 45.111084%)" offset="0.523437"/><stop stop-opacity="1" stop-color="rgb(56.916809%, 34.454346%, 45.495605%)" offset="0.527344"/><stop stop-opacity="1" stop-color="rgb(56.552124%, 34.745789%, 45.880127%)" offset="0.53125"/><stop stop-opacity="1" stop-color="rgb(56.187439%, 35.037231%, 46.264648%)" offset="0.535156"/><stop stop-opacity="1" stop-color="rgb(55.82428%, 35.328674%, 46.64917%)" offset="0.539062"/><stop stop-opacity="1" stop-color="rgb(55.459595%, 35.620117%, 47.033691%)" offset="0.542969"/><stop stop-opacity="1" stop-color="rgb(55.09491%, 35.91156%, 47.419739%)" offset="0.546875"/><stop stop-opacity="1" stop-color="rgb(54.730225%, 36.203003%, 47.80426%)" offset="0.550781"/><stop stop-opacity="1" stop-color="rgb(54.36554%, 36.494446%, 48.188782%)" offset="0.554688"/><stop stop-opacity="1" stop-color="rgb(54.000854%, 36.785889%, 48.573303%)" offset="0.558594"/><stop stop-opacity="1" stop-color="rgb(53.637695%, 37.077332%, 48.957825%)" offset="0.5625"/><stop stop-opacity="1" stop-color="rgb(53.27301%, 37.368774%, 49.342346%)" offset="0.566406"/><stop stop-opacity="1" stop-color="rgb(52.908325%, 37.660217%, 49.726868%)" offset="0.570312"/><stop stop-opacity="1" stop-color="rgb(52.54364%, 37.95166%, 50.111389%)" offset="0.574219"/><stop stop-opacity="1" stop-color="rgb(52.180481%, 38.243103%, 50.497437%)" offset="0.578125"/><stop stop-opacity="1" stop-color="rgb(51.815796%, 38.534546%, 50.881958%)" offset="0.582031"/><stop stop-opacity="1" stop-color="rgb(51.451111%, 38.825989%, 51.266479%)" offset="0.585938"/><stop stop-opacity="1" stop-color="rgb(51.086426%, 39.117432%, 51.651001%)" offset="0.589844"/><stop stop-opacity="1" stop-color="rgb(50.723267%, 39.408875%, 52.035522%)" offset="0.59375"/><stop stop-opacity="1" stop-color="rgb(50.358582%, 39.700317%, 52.420044%)" offset="0.597656"/><stop stop-opacity="1" stop-color="rgb(49.993896%, 39.99176%, 52.806091%)" offset="0.601562"/><stop stop-opacity="1" stop-color="rgb(49.629211%, 40.283203%, 53.190613%)" offset="0.605469"/><stop stop-opacity="1" stop-color="rgb(49.266052%, 40.574646%, 53.575134%)" offset="0.609375"/><stop stop-opacity="1" stop-color="rgb(48.901367%, 40.866089%, 53.959656%)" offset="0.613281"/><stop stop-opacity="1" stop-color="rgb(48.536682%, 41.157532%, 54.344177%)" offset="0.617187"/><stop stop-opacity="1" stop-color="rgb(48.171997%, 41.447449%, 54.728699%)" offset="0.621094"/><stop stop-opacity="1" stop-color="rgb(47.808838%, 41.738892%, 55.11322%)" offset="0.625"/><stop stop-opacity="1" stop-color="rgb(47.444153%, 42.030334%, 55.497742%)" offset="0.628906"/><stop stop-opacity="1" stop-color="rgb(47.079468%, 42.321777%, 55.883789%)" offset="0.632812"/><stop stop-opacity="1" stop-color="rgb(46.714783%, 42.61322%, 56.268311%)" offset="0.636719"/><stop stop-opacity="1" stop-color="rgb(46.351624%, 42.904663%, 56.652832%)" offset="0.640625"/><stop stop-opacity="1" stop-color="rgb(45.986938%, 43.196106%, 57.037354%)" offset="0.644531"/><stop stop-opacity="1" stop-color="rgb(45.622253%, 43.487549%, 57.421875%)" offset="0.648438"/><stop stop-opacity="1" stop-color="rgb(45.257568%, 43.778992%, 57.806396%)" offset="0.652344"/><stop stop-opacity="1" stop-color="rgb(44.892883%, 44.070435%, 58.192444%)" offset="0.65625"/><stop stop-opacity="1" stop-color="rgb(44.528198%, 44.361877%, 58.576965%)" offset="0.660156"/><stop stop-opacity="1" stop-color="rgb(44.165039%, 44.65332%, 58.961487%)" offset="0.664062"/><stop stop-opacity="1" stop-color="rgb(43.800354%, 44.944763%, 59.346008%)" offset="0.667969"/><stop stop-opacity="1" stop-color="rgb(43.435669%, 45.236206%, 59.73053%)" offset="0.671875"/><stop stop-opacity="1" stop-color="rgb(43.070984%, 45.527649%, 60.115051%)" offset="0.675781"/><stop stop-opacity="1" stop-color="rgb(42.707825%, 45.819092%, 60.501099%)" offset="0.679688"/><stop stop-opacity="1" stop-color="rgb(42.34314%, 46.110535%, 60.88562%)" offset="0.683594"/><stop stop-opacity="1" stop-color="rgb(41.978455%, 46.401978%, 61.270142%)" offset="0.6875"/><stop stop-opacity="1" stop-color="rgb(41.61377%, 46.69342%, 61.654663%)" offset="0.691406"/><stop stop-opacity="1" stop-color="rgb(41.25061%, 46.984863%, 62.039185%)" offset="0.695312"/><stop stop-opacity="1" stop-color="rgb(40.885925%, 47.276306%, 62.423706%)" offset="0.699219"/><stop stop-opacity="1" stop-color="rgb(40.52124%, 47.567749%, 62.808228%)" offset="0.703125"/><stop stop-opacity="1" stop-color="rgb(40.156555%, 47.859192%, 63.192749%)" offset="0.707031"/><stop stop-opacity="1" stop-color="rgb(39.793396%, 48.150635%, 63.578796%)" offset="0.710937"/><stop stop-opacity="1" stop-color="rgb(39.428711%, 48.442078%, 63.963318%)" offset="0.714844"/><stop stop-opacity="1" stop-color="rgb(39.064026%, 48.733521%, 64.347839%)" offset="0.71875"/><stop stop-opacity="1" stop-color="rgb(38.699341%, 49.023438%, 64.732361%)" offset="0.722656"/><stop stop-opacity="1" stop-color="rgb(38.336182%, 49.31488%, 65.116882%)" offset="0.726562"/><stop stop-opacity="1" stop-color="rgb(37.971497%, 49.606323%, 65.501404%)" offset="0.730469"/><stop stop-opacity="1" stop-color="rgb(37.606812%, 49.897766%, 65.887451%)" offset="0.734375"/><stop stop-opacity="1" stop-color="rgb(37.242126%, 50.189209%, 66.271973%)" offset="0.738281"/><stop stop-opacity="1" stop-color="rgb(36.877441%, 50.480652%, 66.656494%)" offset="0.742188"/><stop stop-opacity="1" stop-color="rgb(36.512756%, 50.772095%, 67.041016%)" offset="0.746094"/><stop stop-opacity="1" stop-color="rgb(36.149597%, 51.063538%, 67.425537%)" offset="0.75"/><stop stop-opacity="1" stop-color="rgb(35.784912%, 51.35498%, 67.810059%)" offset="0.753906"/><stop stop-opacity="1" stop-color="rgb(35.420227%, 51.646423%, 68.19458%)" offset="0.757812"/><stop stop-opacity="1" stop-color="rgb(35.055542%, 51.937866%, 68.579102%)" offset="0.761719"/><stop stop-opacity="1" stop-color="rgb(34.692383%, 52.229309%, 68.965149%)" offset="0.765625"/><stop stop-opacity="1" stop-color="rgb(34.327698%, 52.520752%, 69.34967%)" offset="0.769531"/><stop stop-opacity="1" stop-color="rgb(33.963013%, 52.812195%, 69.734192%)" offset="0.773437"/><stop stop-opacity="1" stop-color="rgb(33.598328%, 53.103638%, 70.118713%)" offset="0.777344"/><stop stop-opacity="1" stop-color="rgb(33.235168%, 53.395081%, 70.503235%)" offset="0.78125"/><stop stop-opacity="1" stop-color="rgb(32.870483%, 53.686523%, 70.887756%)" offset="0.785156"/><stop stop-opacity="1" stop-color="rgb(32.505798%, 53.977966%, 71.273804%)" offset="0.789062"/><stop stop-opacity="1" stop-color="rgb(32.141113%, 54.269409%, 71.658325%)" offset="0.792969"/><stop stop-opacity="1" stop-color="rgb(31.777954%, 54.560852%, 72.042847%)" offset="0.796875"/><stop stop-opacity="1" stop-color="rgb(31.413269%, 54.852295%, 72.427368%)" offset="0.800781"/><stop stop-opacity="1" stop-color="rgb(31.048584%, 55.143738%, 72.81189%)" offset="0.804687"/><stop stop-opacity="1" stop-color="rgb(30.683899%, 55.435181%, 73.196411%)" offset="0.808594"/><stop stop-opacity="1" stop-color="rgb(30.32074%, 55.726624%, 73.582458%)" offset="0.8125"/><stop stop-opacity="1" stop-color="rgb(29.956055%, 56.016541%, 73.96698%)" offset="0.816406"/><stop stop-opacity="1" stop-color="rgb(29.59137%, 56.307983%, 74.351501%)" offset="0.820312"/><stop stop-opacity="1" stop-color="rgb(29.226685%, 56.599426%, 74.736023%)" offset="0.824219"/><stop stop-opacity="1" stop-color="rgb(28.862%, 56.890869%, 75.120544%)" offset="0.828125"/><stop stop-opacity="1" stop-color="rgb(28.497314%, 57.182312%, 75.505066%)" offset="0.832031"/><stop stop-opacity="1" stop-color="rgb(28.134155%, 57.473755%, 75.889587%)" offset="0.835938"/><stop stop-opacity="1" stop-color="rgb(27.76947%, 57.765198%, 76.274109%)" offset="0.839844"/><stop stop-opacity="1" stop-color="rgb(27.404785%, 58.056641%, 76.660156%)" offset="0.84375"/><stop stop-opacity="1" stop-color="rgb(27.0401%, 58.348083%, 77.044678%)" offset="0.847656"/><stop stop-opacity="1" stop-color="rgb(26.676941%, 58.639526%, 77.429199%)" offset="0.851562"/><stop stop-opacity="1" stop-color="rgb(26.312256%, 58.930969%, 77.813721%)" offset="0.855469"/><stop stop-opacity="1" stop-color="rgb(25.947571%, 59.222412%, 78.198242%)" offset="0.859375"/><stop stop-opacity="1" stop-color="rgb(25.582886%, 59.513855%, 78.582764%)" offset="0.863281"/><stop stop-opacity="1" stop-color="rgb(25.219727%, 59.805298%, 78.968811%)" offset="0.867187"/><stop stop-opacity="1" stop-color="rgb(24.855042%, 60.096741%, 79.353333%)" offset="0.871094"/><stop stop-opacity="1" stop-color="rgb(24.490356%, 60.388184%, 79.737854%)" offset="0.875"/><stop stop-opacity="1" stop-color="rgb(24.125671%, 60.679626%, 80.122375%)" offset="0.878906"/><stop stop-opacity="1" stop-color="rgb(23.762512%, 60.971069%, 80.506897%)" offset="0.882812"/><stop stop-opacity="1" stop-color="rgb(23.397827%, 61.262512%, 80.891418%)" offset="0.886719"/><stop stop-opacity="1" stop-color="rgb(23.033142%, 61.553955%, 81.27594%)" offset="0.890625"/><stop stop-opacity="1" stop-color="rgb(22.668457%, 61.845398%, 81.660461%)" offset="0.894531"/><stop stop-opacity="1" stop-color="rgb(22.305298%, 62.136841%, 82.046509%)" offset="0.898437"/><stop stop-opacity="1" stop-color="rgb(21.940613%, 62.428284%, 82.43103%)" offset="0.902344"/><stop stop-opacity="1" stop-color="rgb(21.575928%, 62.719727%, 82.815552%)" offset="0.90625"/><stop stop-opacity="1" stop-color="rgb(21.211243%, 63.011169%, 83.200073%)" offset="0.910156"/><stop stop-opacity="1" stop-color="rgb(20.848083%, 63.302612%, 83.584595%)" offset="0.914062"/><stop stop-opacity="1" stop-color="rgb(20.483398%, 63.592529%, 83.969116%)" offset="0.917969"/><stop stop-opacity="1" stop-color="rgb(20.118713%, 63.883972%, 84.355164%)" offset="0.921875"/><stop stop-opacity="1" stop-color="rgb(19.754028%, 64.175415%, 84.739685%)" offset="0.925781"/><stop stop-opacity="1" stop-color="rgb(19.389343%, 64.466858%, 85.124207%)" offset="0.929688"/><stop stop-opacity="1" stop-color="rgb(19.024658%, 64.758301%, 85.508728%)" offset="0.933594"/><stop stop-opacity="1" stop-color="rgb(18.661499%, 65.049744%, 85.89325%)" offset="0.9375"/><stop stop-opacity="1" stop-color="rgb(18.296814%, 65.341187%, 86.277771%)" offset="0.941406"/><stop stop-opacity="1" stop-color="rgb(17.932129%, 65.632629%, 86.663818%)" offset="0.945312"/><stop stop-opacity="1" stop-color="rgb(17.567444%, 65.924072%, 87.04834%)" offset="0.949219"/><stop stop-opacity="1" stop-color="rgb(17.204285%, 66.215515%, 87.432861%)" offset="0.953125"/><stop stop-opacity="1" stop-color="rgb(16.8396%, 66.506958%, 87.817383%)" offset="0.957031"/><stop stop-opacity="1" stop-color="rgb(16.474915%, 66.798401%, 88.201904%)" offset="0.960938"/><stop stop-opacity="1" stop-color="rgb(16.287231%, 66.947937%, 88.400269%)" offset="0.964844"/><stop stop-opacity="1" stop-color="rgb(16.099548%, 67.098999%, 88.598633%)" offset="0.96875"/><stop stop-opacity="1" stop-color="rgb(16.099548%, 67.098999%, 88.598633%)" offset="1"/></linearGradient></defs><g clip-path="url(#621f7e1f97)"><g clip-path="url(#10a1bdf8ba)"><path fill="url(#256c0d53a8)" d="M 296.601562 77.769531 L 296.601562 297.460938 L 78.449219 297.460938 L 78.449219 77.769531 Z M 296.601562 77.769531 " fill-rule="nonzero"/></g></g><g fill="#000000" fill-opacity="1"><g transform="translate(72.590692, 197.627917)"><g><path d="M 21.203125 0 L 21.171875 -12.375 L 15.109375 -2.171875 L 12.953125 -2.171875 L 6.921875 -12.109375 L 6.921875 0 L 2.4375 0 L 2.4375 -20.609375 L 6.390625 -20.609375 L 14.109375 -7.8125 L 21.703125 -20.609375 L 25.625 -20.609375 L 25.6875 0 Z M 21.203125 0 "/></g></g></g><g fill="#000000" fill-opacity="1"><g transform="translate(106.607008, 197.627917)"><g><path d="M 8.515625 -16.078125 C 10.960938 -16.078125 12.84375 -15.492188 14.15625 -14.328125 C 15.476562 -13.160156 16.140625 -11.398438 16.140625 -9.046875 L 16.140625 0 L 11.84375 0 L 11.84375 -1.96875 C 10.976562 -0.5 9.367188 0.234375 7.015625 0.234375 C 5.796875 0.234375 4.738281 0.03125 3.84375 -0.375 C 2.945312 -0.789062 2.265625 -1.363281 1.796875 -2.09375 C 1.328125 -2.820312 1.09375 -3.644531 1.09375 -4.5625 C 1.09375 -6.039062 1.644531 -7.203125 2.75 -8.046875 C 3.863281 -8.890625 5.578125 -9.3125 7.890625 -9.3125 L 11.546875 -9.3125 C 11.546875 -10.3125 11.238281 -11.078125 10.625 -11.609375 C 10.019531 -12.148438 9.109375 -12.421875 7.890625 -12.421875 C 7.046875 -12.421875 6.21875 -12.289062 5.40625 -12.03125 C 4.59375 -11.769531 3.898438 -11.410156 3.328125 -10.953125 L 1.671875 -14.171875 C 2.535156 -14.773438 3.570312 -15.242188 4.78125 -15.578125 C 5.988281 -15.910156 7.234375 -16.078125 8.515625 -16.078125 Z M 8.15625 -2.859375 C 8.945312 -2.859375 9.644531 -3.039062 10.25 -3.40625 C 10.851562 -3.769531 11.285156 -4.300781 11.546875 -5 L 11.546875 -6.625 L 8.390625 -6.625 C 6.503906 -6.625 5.5625 -6.003906 5.5625 -4.765625 C 5.5625 -4.179688 5.789062 -3.71875 6.25 -3.375 C 6.71875 -3.03125 7.351562 -2.859375 8.15625 -2.859375 Z M 8.15625 -2.859375 "/></g></g></g><g fill="#000000" fill-opacity="1"><g transform="translate(130.669494, 197.627917)"><g><path d="M 6.515625 -13.75 C 7.054688 -14.519531 7.789062 -15.097656 8.71875 -15.484375 C 9.65625 -15.878906 10.734375 -16.078125 11.953125 -16.078125 L 11.953125 -11.84375 C 11.441406 -11.882812 11.097656 -11.90625 10.921875 -11.90625 C 9.609375 -11.90625 8.578125 -11.535156 7.828125 -10.796875 C 7.085938 -10.054688 6.71875 -8.953125 6.71875 -7.484375 L 6.71875 0 L 2.125 0 L 2.125 -15.84375 L 6.515625 -15.84375 Z M 6.515625 -13.75 "/></g></g></g><g fill="#000000" fill-opacity="1"><g transform="translate(149.254429, 197.627917)"><g><path d="M 9.78125 0.234375 C 8.09375 0.234375 6.570312 -0.113281 5.21875 -0.8125 C 3.875 -1.507812 2.820312 -2.472656 2.0625 -3.703125 C 1.3125 -4.941406 0.9375 -6.347656 0.9375 -7.921875 C 0.9375 -9.492188 1.3125 -10.894531 2.0625 -12.125 C 2.820312 -13.363281 3.875 -14.332031 5.21875 -15.03125 C 6.570312 -15.726562 8.09375 -16.078125 9.78125 -16.078125 C 11.445312 -16.078125 12.898438 -15.726562 14.140625 -15.03125 C 15.390625 -14.332031 16.300781 -13.335938 16.875 -12.046875 L 13.3125 -10.125 C 12.488281 -11.582031 11.300781 -12.3125 9.75 -12.3125 C 8.550781 -12.3125 7.554688 -11.914062 6.765625 -11.125 C 5.984375 -10.34375 5.59375 -9.273438 5.59375 -7.921875 C 5.59375 -6.566406 5.984375 -5.492188 6.765625 -4.703125 C 7.554688 -3.921875 8.550781 -3.53125 9.75 -3.53125 C 11.320312 -3.53125 12.507812 -4.257812 13.3125 -5.71875 L 16.875 -3.765625 C 16.300781 -2.515625 15.390625 -1.535156 14.140625 -0.828125 C 12.898438 -0.117188 11.445312 0.234375 9.78125 0.234375 Z M 9.78125 0.234375 "/></g></g></g><g fill="#000000" fill-opacity="1"><g transform="translate(172.551233, 197.627917)"><g/></g></g><g fill="#000000" fill-opacity="1"><g transform="translate(186.777669, 197.627917)"><g><path d="M 21.203125 0 L 21.171875 -12.375 L 15.109375 -2.171875 L 12.953125 -2.171875 L 6.921875 -12.109375 L 6.921875 0 L 2.4375 0 L 2.4375 -20.609375 L 6.390625 -20.609375 L 14.109375 -7.8125 L 21.703125 -20.609375 L 25.625 -20.609375 L 25.6875 0 Z M 21.203125 0 "/></g></g></g><g fill="#000000" fill-opacity="1"><g transform="translate(220.793982, 197.627917)"><g><path d="M 8.515625 -16.078125 C 10.960938 -16.078125 12.84375 -15.492188 14.15625 -14.328125 C 15.476562 -13.160156 16.140625 -11.398438 16.140625 -9.046875 L 16.140625 0 L 11.84375 0 L 11.84375 -1.96875 C 10.976562 -0.5 9.367188 0.234375 7.015625 0.234375 C 5.796875 0.234375 4.738281 0.03125 3.84375 -0.375 C 2.945312 -0.789062 2.265625 -1.363281 1.796875 -2.09375 C 1.328125 -2.820312 1.09375 -3.644531 1.09375 -4.5625 C 1.09375 -6.039062 1.644531 -7.203125 2.75 -8.046875 C 3.863281 -8.890625 5.578125 -9.3125 7.890625 -9.3125 L 11.546875 -9.3125 C 11.546875 -10.3125 11.238281 -11.078125 10.625 -11.609375 C 10.019531 -12.148438 9.109375 -12.421875 7.890625 -12.421875 C 7.046875 -12.421875 6.21875 -12.289062 5.40625 -12.03125 C 4.59375 -11.769531 3.898438 -11.410156 3.328125 -10.953125 L 1.671875 -14.171875 C 2.535156 -14.773438 3.570312 -15.242188 4.78125 -15.578125 C 5.988281 -15.910156 7.234375 -16.078125 8.515625 -16.078125 Z M 8.15625 -2.859375 C 8.945312 -2.859375 9.644531 -3.039062 10.25 -3.40625 C 10.851562 -3.769531 11.285156 -4.300781 11.546875 -5 L 11.546875 -6.625 L 8.390625 -6.625 C 6.503906 -6.625 5.5625 -6.003906 5.5625 -4.765625 C 5.5625 -4.179688 5.789062 -3.71875 6.25 -3.375 C 6.71875 -3.03125 7.351562 -2.859375 8.15625 -2.859375 Z M 8.15625 -2.859375 "/></g></g></g><g fill="#000000" fill-opacity="1"><g transform="translate(244.856465, 197.627917)"><g><path d="M 17.84375 -15.84375 L 10.6875 0.96875 C 9.96875 2.800781 9.070312 4.085938 8 4.828125 C 6.925781 5.578125 5.632812 5.953125 4.125 5.953125 C 3.300781 5.953125 2.484375 5.820312 1.671875 5.5625 C 0.867188 5.3125 0.210938 4.957031 -0.296875 4.5 L 1.390625 1.234375 C 1.742188 1.546875 2.148438 1.789062 2.609375 1.96875 C 3.066406 2.144531 3.519531 2.234375 3.96875 2.234375 C 4.601562 2.234375 5.113281 2.082031 5.5 1.78125 C 5.894531 1.476562 6.25 0.972656 6.5625 0.265625 L 6.625 0.125 L -0.234375 -15.84375 L 4.5 -15.84375 L 8.953125 -5.09375 L 13.4375 -15.84375 Z M 17.84375 -15.84375 "/></g></g></g><g fill="#000000" fill-opacity="1"><g transform="translate(268.359424, 197.627917)"><g><path d="M 9.65625 0.234375 C 7.988281 0.234375 6.492188 -0.113281 5.171875 -0.8125 C 3.847656 -1.507812 2.8125 -2.472656 2.0625 -3.703125 C 1.3125 -4.941406 0.9375 -6.347656 0.9375 -7.921875 C 0.9375 -9.492188 1.3125 -10.894531 2.0625 -12.125 C 2.8125 -13.363281 3.847656 -14.332031 5.171875 -15.03125 C 6.492188 -15.726562 7.988281 -16.078125 9.65625 -16.078125 C 11.332031 -16.078125 12.828125 -15.726562 14.140625 -15.03125 C 15.453125 -14.332031 16.476562 -13.363281 17.21875 -12.125 C 17.96875 -10.894531 18.34375 -9.492188 18.34375 -7.921875 C 18.34375 -6.347656 17.96875 -4.941406 17.21875 -3.703125 C 16.476562 -2.472656 15.453125 -1.507812 14.140625 -0.8125 C 12.828125 -0.113281 11.332031 0.234375 9.65625 0.234375 Z M 9.65625 -3.53125 C 10.832031 -3.53125 11.800781 -3.925781 12.5625 -4.71875 C 13.320312 -5.519531 13.703125 -6.585938 13.703125 -7.921875 C 13.703125 -9.253906 13.320312 -10.316406 12.5625 -11.109375 C 11.800781 -11.910156 10.832031 -12.3125 9.65625 -12.3125 C 8.476562 -12.3125 7.503906 -11.910156 6.734375 -11.109375 C 5.972656 -10.316406 5.59375 -9.253906 5.59375 -7.921875 C 5.59375 -6.585938 5.972656 -5.519531 6.734375 -4.71875 C 7.503906 -3.925781 8.476562 -3.53125 9.65625 -3.53125 Z M 9.65625 -3.53125 "/></g></g></g><g fill="#000000" fill-opacity="1"><g transform="translate(293.540979, 197.627917)"><g><path d="M 2.125 -21.859375 L 6.71875 -21.859375 L 6.71875 0 L 2.125 0 Z M 2.125 -21.859375 "/></g></g></g></svg>